<svg width="665" height="89" viewBox="0 0 665 89" fill="none" xmlns="http://www.w3.org/2000/svg">
<path d="M13.405 44.517C13.405 44.517 7.39586 51.6817 10.4004 54.125C15.287 58.054 39.4556 42.1397 48.0401 42.1397C62.0724 42.1397 65.8694 51.4836 67.8504 63.0396C68.5158 69.8269 68.3273 76.6709 67.2891 83.4113C65.9062 82.6142 64.7666 81.4553 63.9929 80.0591C63.2192 78.6629 62.8406 77.0823 62.8978 75.4871C61.4774 78.2623 59.3003 80.5785 56.6183 82.1678C53.9364 83.7571 50.8592 84.5545 47.7429 84.4678C35.6916 84.4678 30.739 79.5152 17.1359 79.5152C9.60802 79.5152 0 85.6895 0 85.6895C0.10801 83.428 0.738357 81.2223 1.84161 79.2452C2.94487 77.2682 4.49105 75.5735 6.35895 74.2942C8.22685 73.0148 10.3657 72.1854 12.6078 71.8711C14.8499 71.5568 17.1344 71.7661 19.2821 72.4826C19.4388 71.6496 19.3915 70.7911 19.1443 69.9804C18.8971 69.1697 18.4572 68.4309 17.8623 67.8271C19.131 67.5983 20.4358 67.6735 21.6697 68.0466C22.9037 68.4197 24.0316 69.0799 24.961 69.9732C25.6874 68.6195 25.2582 67.596 24.961 65.4499C26.4361 65.689 27.8379 66.2587 29.0615 67.1164C30.2851 67.9741 31.2988 69.0975 32.0267 70.4025C31.3853 68.5895 31.1933 66.648 31.4672 64.7446C31.7411 62.8411 32.4728 61.0326 33.5995 59.4741C34.7261 57.9156 36.2141 56.6538 37.9357 55.7968C39.6572 54.9399 41.5611 54.5135 43.4837 54.5542C45.6635 54.4062 47.819 55.0853 49.5202 56.4561C51.2215 57.8269 52.3435 59.7886 52.6625 61.9501C52.6261 63.3626 52.1912 64.7361 51.4078 65.9121C52.2201 66.1995 53.0838 66.3128 53.9428 66.2445C54.8017 66.1763 55.6367 65.928 56.3934 65.5159C55.667 68.2564 54.0492 69.9732 50.7145 68.8176C50.6857 69.736 50.472 70.6392 50.0863 71.4731C49.7005 72.307 49.1506 73.0546 48.4693 73.6712C47.688 73.0819 47.0712 72.3018 46.6781 71.4057C46.2849 70.5095 46.1286 69.5274 46.2241 68.5535C42.9224 70.0723 41.3376 68.3554 39.9178 65.9121C39.9178 65.9121 46.2241 67.4639 46.2241 63.4688C46.2241 61.6529 45.6298 60.0021 42.9224 60.0021C42.1302 60.062 41.3587 60.2838 40.6556 60.6537C39.9525 61.0236 39.3327 61.5337 38.8345 62.1526C38.3363 62.7715 37.9703 63.4859 37.7591 64.2518C37.5479 65.0177 37.496 65.8188 37.6066 66.6055C37.8047 71.2939 40.9083 75.0909 48.2712 75.0909C55.1718 75.0909 58.6056 69.511 58.8037 62.2142C59.0348 55.6108 55.502 50.6251 48.6344 50.6251C39.5877 50.6251 18.9189 63.832 10.8627 63.832C9.52573 63.7747 8.21427 63.4471 7.00744 62.869C5.80061 62.2909 4.72344 61.4742 3.84094 60.4682C2.95845 59.4623 2.28892 58.288 1.87279 57.0162C1.45665 55.7444 1.30254 54.4014 1.41974 53.0684C1.41974 46.1348 8.2543 40.3238 8.2543 40.3238L13.339 44.3849L13.405 44.517Z" fill="#F2F2F2"/>
<path d="M177.171 42.998C192.325 42.998 200.085 56.6011 200.085 67.2657C200.085 81.6612 191.5 89.3212 180.274 89.3212C174.511 89.3988 168.825 87.9887 163.766 85.227C163.766 85.227 114.24 61.4877 95.2879 52.2098C92.4306 51.0098 89.3336 50.4898 86.2411 50.691C83.1583 50.876 80.2641 52.2375 78.156 54.4944C76.0478 56.7514 74.8866 59.7316 74.912 62.8199C74.9375 65.9081 76.1475 68.8688 78.2926 71.0908C80.4376 73.3127 83.3538 74.6264 86.4393 74.7606C93.9672 74.7606 97.3349 70.8646 97.3349 66.8365C97.3349 61.9169 95.2879 59.9358 91.821 59.9358C89.4108 59.9358 88.5193 61.0914 88.5193 62.7753C88.5193 67.0015 94.2313 65.8129 94.2313 65.8129C94.1221 66.3772 93.8893 66.9103 93.5498 67.374C93.2103 67.8377 92.7723 68.2206 92.2674 68.4951C91.7625 68.7697 91.2031 68.9291 90.6293 68.962C90.0555 68.9949 89.4815 68.9005 88.9485 68.6854C88.5819 70.2719 87.7275 71.7036 86.5053 72.7795C85.236 71.6879 84.3746 70.198 84.062 68.5533C83.4872 68.842 82.849 68.9812 82.2063 68.9582C81.5635 68.9352 80.9369 68.7507 80.3842 68.4218C79.8315 68.0928 79.3706 67.6299 79.044 67.0759C78.7173 66.5218 78.5354 65.8945 78.5151 65.2516C79.6115 65.7469 80.8356 65.8855 82.0149 65.6478C81.5632 64.3172 81.4424 62.8966 81.663 61.5088C81.8836 60.121 82.439 58.8079 83.281 57.683C84.1231 56.558 85.2265 55.6552 86.4959 55.0525C87.7653 54.4498 89.1624 54.1654 90.5664 54.2239C98.3255 54.2239 104.83 59.5726 103.212 69.6759C103.794 68.5463 104.667 67.5925 105.741 66.9134C106.814 66.2342 108.05 65.8543 109.32 65.8129C108.86 67.0539 108.582 68.3551 108.495 69.6759C110.764 67.8897 113.564 66.9135 116.452 66.9025C115.593 68.7845 114.042 70.5344 115.032 72.9116C122.428 69.1476 132.597 73.7701 134.842 85.5242C130.481 81.5434 124.831 79.2691 118.928 79.1188C101.396 79.1188 98.4245 84.0054 86.2411 84.0054C83.3997 83.9258 80.6175 83.1753 78.1214 81.8154C75.6253 80.4555 73.4862 78.5246 71.8786 76.1803L72.0767 76.1803C71.7832 77.61 71.1939 78.9624 70.3466 80.1508C69.4994 81.3392 68.413 82.3373 67.1572 83.0809C64.9082 74.7448 64.9881 65.9515 67.3883 57.6576C67.7985 54.9015 68.8134 52.2704 70.3604 49.9528C71.9074 47.6352 73.948 45.6886 76.336 44.2527C79.7437 42.7751 83.4184 42.0127 87.1326 42.0127C90.8468 42.0127 94.5215 42.7751 97.9292 44.2527C107.834 48.9081 154.389 70.9306 169.048 77.7982C172.137 79.2997 175.519 80.1002 178.954 80.1424C180.599 80.1339 182.227 79.799 183.743 79.1572C185.258 78.5154 186.632 77.5794 187.783 76.4034C188.935 75.2274 189.841 73.8346 190.451 72.3058C191.061 70.777 191.361 69.1425 191.335 67.4968C191.335 61.8839 187.076 56.2049 181.76 56.2049C178.458 56.2049 176.345 58.0208 176.345 60.6622C176.345 67.0015 181.727 66.6053 185.128 65.3507C184.593 67.0814 183.483 68.5778 181.982 69.5924C180.481 70.607 178.679 71.0791 176.873 70.9306C176.493 73.3971 175.225 75.6398 173.308 77.2369C172.265 76.5418 171.406 75.6057 170.803 74.5079C170.199 73.4101 169.869 72.183 169.841 70.9306C164.657 72.2182 162.478 68.7514 161.289 65.3507C165.053 66.4402 169.412 67.1336 169.412 60.6622C169.412 55.9738 170.237 52.2759 173.308 50.0967C169.213 50.0967 153.134 49.6015 153.134 49.6015C147.092 49.3373 147.257 57.6907 149.04 63.0064C142.073 60.9924 138.309 56.8983 139.135 47.3563C138.558 48.7868 137.555 50.0046 136.261 50.8437C134.967 51.6827 133.445 52.1021 131.904 52.0447C129.194 51.8239 126.563 51.0298 124.183 49.7149C121.804 48.4 119.731 46.5944 118.103 44.4178L177.138 42.899L177.171 42.998Z" fill="#F2F2F2"/>
<path d="M222.602 42.9983C207.447 42.9983 199.49 56.6014 199.49 67.266C199.49 81.6615 208.108 89.3215 219.301 89.3215C225.063 89.3947 230.748 87.9849 235.809 85.2274C235.809 85.2274 285.335 61.488 304.254 52.2101C307.177 51.0003 310.343 50.4914 313.499 50.7244C316.582 50.9093 319.476 52.2708 321.584 54.5278C323.692 56.7847 324.853 59.7649 324.828 62.8532C324.802 65.9415 323.592 68.9022 321.447 71.1241C319.302 73.3461 316.386 74.6597 313.301 74.7939C305.74 74.7939 302.405 70.8979 302.405 66.8698C302.405 61.9502 304.419 59.9692 307.886 59.9692C310.329 59.9692 311.353 61.1248 311.353 62.8087C311.353 67.0349 305.641 65.8463 305.641 65.8463C305.754 66.4117 305.991 66.9451 306.334 67.4088C306.677 67.8725 307.117 68.255 307.625 68.5292C308.132 68.8033 308.694 68.9624 309.269 68.9952C309.845 69.028 310.421 68.9336 310.956 68.7188C311.31 70.3104 312.167 71.7459 313.4 72.8129C314.547 71.7085 315.331 70.2802 315.645 68.7188C316.22 69.0074 316.858 69.1466 317.501 69.1236C318.143 69.1006 318.77 68.9162 319.323 68.5872C319.875 68.2582 320.336 67.7953 320.663 67.2413C320.99 66.6873 321.171 66.0599 321.192 65.417C320.095 65.9123 318.871 66.0509 317.692 65.8132C318.145 64.4799 318.265 63.0562 318.043 61.6656C317.821 60.2751 317.263 58.9599 316.417 57.8341C315.571 56.7084 314.463 55.8062 313.189 55.2058C311.915 54.6055 310.514 54.3252 309.107 54.3893C301.381 54.3893 294.844 59.7381 296.495 69.8413C295.9 68.7302 295.021 67.7965 293.949 67.1353C292.876 66.4741 291.647 66.1091 290.387 66.0774C290.827 67.3225 291.094 68.6224 291.179 69.9404C288.92 68.1589 286.132 67.1827 283.255 67.1669C284.08 69.0489 285.665 70.7988 284.675 73.1761C277.279 69.4121 267.11 74.0345 264.864 85.7887C269.212 81.8076 274.852 79.5326 280.746 79.3833C298.311 79.3833 301.249 84.2699 313.466 84.2699C316.305 84.1824 319.085 83.4286 321.58 82.0693C324.075 80.7101 326.215 78.7834 327.828 76.4448L327.63 76.4448C327.924 77.8744 328.513 79.2269 329.36 80.4153C330.207 81.6037 331.294 82.6017 332.55 83.3454C334.799 75.0092 334.719 66.216 332.319 57.9221C331.912 55.1689 330.902 52.5396 329.361 50.2222C327.82 47.9048 325.786 45.9567 323.404 44.5171C319.997 43.0376 316.322 42.2742 312.607 42.2742C308.893 42.2742 305.218 43.0376 301.811 44.5171C291.905 49.1726 245.384 71.195 230.692 78.0626C227.603 79.5652 224.221 80.3657 220.786 80.4068C219.14 80.3643 217.519 79.9955 216.016 79.3219C214.513 78.6482 213.159 77.683 212.032 76.4823C210.905 75.2815 210.027 73.869 209.45 72.3267C208.873 70.7844 208.607 69.1428 208.669 67.4971C208.669 61.8842 212.928 56.2052 218.244 56.2052C221.546 56.2052 223.626 58.0212 223.626 60.6625C223.626 67.0019 218.244 66.6056 214.876 65.351C215.406 67.0851 216.515 68.585 218.017 69.6005C219.519 70.616 221.324 71.0856 223.131 70.9309C223.48 73.4079 224.754 75.6608 226.696 77.2372C227.702 76.5182 228.525 75.5729 229.099 74.4775C229.672 73.3821 229.98 72.1672 229.998 70.9309C235.149 72.2186 237.328 68.7518 238.55 65.351C234.753 66.4406 230.394 67.1339 230.394 60.6625C230.394 55.9741 229.569 52.2762 226.531 50.097C230.592 50.097 246.705 49.6018 246.705 49.6018C252.747 49.3376 252.582 57.691 250.766 63.0068C257.733 60.9927 261.497 56.8986 260.671 47.3566C261.255 48.768 262.252 49.9705 263.53 50.8069C264.808 51.6433 266.309 52.0748 267.836 52.045C270.544 51.8201 273.175 51.0242 275.553 49.7096C277.932 48.395 280.005 46.5916 281.637 44.4181L222.602 42.8993L222.602 42.9983Z" fill="#F2F2F2"/>
<path d="M13.405 44.5175C13.405 44.5175 7.39586 37.3527 10.4004 34.9094C15.287 30.9804 39.5216 46.9607 48.0401 46.9607C62.0724 46.9607 65.8694 37.6169 67.8504 26.0608C68.5158 19.2735 68.3273 12.4296 67.2891 5.6892C65.9062 6.48628 64.7666 7.64519 63.9929 9.04135C63.2192 10.4375 62.8406 12.0182 62.8978 13.6133C61.4774 10.8382 59.3003 8.52197 56.6183 6.93266C53.9364 5.34335 50.8592 4.54592 47.7429 4.63265C35.6916 4.63265 30.739 9.58524 17.1359 9.58524C9.60802 9.58524 -1.96279e-06 3.41101 -1.96279e-06 3.41101C0.108009 5.67247 0.738355 7.87818 1.84161 9.85522C2.94487 11.8323 4.49105 13.5269 6.35895 14.8063C8.22685 16.0857 10.3657 16.915 12.6078 17.2293C14.8499 17.5436 17.1344 17.3344 19.2821 16.6179C19.4388 17.4508 19.3915 18.3094 19.1443 19.1201C18.8971 19.9308 18.4572 20.6696 17.8623 21.2733C19.131 21.5021 20.4358 21.4269 21.6697 21.0539C22.9037 20.6808 24.0316 20.0205 24.961 19.1272C25.6874 20.4809 25.2582 21.4714 24.961 23.6506C26.4391 23.4079 27.8428 22.8331 29.0667 21.9696C30.2905 21.106 31.3026 19.9761 32.0267 18.665C31.3785 20.4797 31.1813 22.4249 31.452 24.3328C31.7228 26.2408 32.4533 28.0543 33.5808 29.6171C34.7082 31.1799 36.1987 32.4452 37.9239 33.3039C39.649 34.1626 41.5571 34.5889 43.4837 34.5462C45.6684 34.6934 47.8281 34.0097 49.5302 32.6322C51.2323 31.2546 52.351 29.2848 52.6625 27.1174C52.6261 25.7048 52.1912 24.3313 51.4078 23.1553C52.2201 22.8679 53.0838 22.7546 53.9428 22.8229C54.8017 22.8912 55.6367 23.1394 56.3934 23.5515C55.667 20.8111 54.0492 19.0942 50.7145 20.2498C50.6857 19.3314 50.472 18.4283 50.0863 17.5943C49.7005 16.7604 49.1506 16.0128 48.4693 15.3963C47.7274 15.9607 47.135 16.698 46.7436 17.5441C46.3523 18.3901 46.1739 19.319 46.2241 20.2498C42.9224 18.731 41.3376 20.4479 39.9178 22.8912C39.9178 22.8912 46.2241 21.3394 46.2241 25.3345C46.2241 27.1504 45.6298 28.6362 42.9224 28.6362C42.1302 28.5762 41.3587 28.3544 40.6556 27.9845C39.9525 27.6146 39.3327 27.1045 38.8345 26.4856C38.3363 25.8668 37.9703 25.1523 37.7591 24.3864C37.5479 23.6205 37.496 22.8195 37.6066 22.0327C37.8047 17.3443 40.9083 13.5473 48.2712 13.5473C55.1718 13.5473 58.6056 19.1272 58.8037 26.424C59.0348 33.0275 55.502 38.0131 48.6344 38.0131C39.5877 38.0131 18.9189 24.8062 10.8627 24.8062C9.52573 24.8635 8.21427 25.1911 7.00744 25.7692C5.80061 26.3474 4.72344 27.164 3.84094 28.17C2.95845 29.1759 2.28892 30.3502 1.87279 31.622C1.45665 32.8938 1.30254 34.2368 1.41974 35.5698C1.41974 42.4704 8.25431 48.3145 8.25431 48.3145L13.339 44.2533L13.405 44.5175Z" fill="#F2F2F2"/>
<path d="M177.17 46.0355C192.325 46.0355 200.084 32.4324 200.084 21.7348C200.084 7.37228 191.5 -0.32074 180.274 -0.320739C174.508 -0.386814 168.822 1.03464 163.766 3.80641C163.766 3.80641 114.24 27.5458 95.2878 36.8236C92.4305 38.0237 89.3336 38.5436 86.2411 38.3424C83.1582 38.1575 80.2641 36.796 78.1559 34.539C76.0478 32.2821 74.8866 29.3019 74.912 26.2136C74.9374 23.1253 76.1475 20.1647 78.2925 17.9427C80.4375 15.7207 83.3537 14.4071 86.4392 14.2729C93.9671 14.2729 97.3349 18.1689 97.3349 22.197C97.3349 27.1166 95.2878 29.0976 91.821 29.0976C89.4107 29.0976 88.5193 27.942 88.5193 26.2581C88.5193 21.9989 94.2312 23.2205 94.2312 23.2205C94.122 22.6563 93.8893 22.1232 93.5497 21.6595C93.2102 21.1957 92.7723 20.8129 92.2674 20.5383C91.7624 20.2638 91.203 20.1043 90.6292 20.0714C90.0554 20.0385 89.4815 20.133 88.9485 20.3481C88.5818 18.7616 87.7274 17.3298 86.5052 16.2539C85.3344 17.3404 84.5467 18.7767 84.26 20.3481C83.6864 20.05 83.0461 19.9034 82.3999 19.922C81.7537 19.9407 81.123 20.124 80.5674 20.4547C80.0119 20.7854 79.55 21.2524 79.2255 21.8115C78.901 22.3707 78.7247 23.0034 78.7131 23.6498C79.8095 23.1545 81.0336 23.0159 82.213 23.2536C81.7612 24.5842 81.6405 26.0048 81.8611 27.3926C82.0817 28.7803 82.637 30.0935 83.4791 31.2184C84.3211 32.3433 85.4246 33.2462 86.694 33.8489C87.9634 34.4516 89.3605 34.736 90.7644 34.6775C98.5235 34.6775 105.028 29.3287 103.41 19.2255C103.992 20.3551 104.865 21.3089 105.939 21.988C107.012 22.6672 108.248 23.0471 109.518 23.0885C109.058 21.8474 108.78 20.5462 108.693 19.2255C110.958 21.0136 113.764 21.9798 116.65 21.9659C115.791 20.1169 114.24 18.367 115.23 15.9898C122.626 19.7537 132.795 15.1313 135.041 3.3772C130.679 7.35798 125.029 9.63224 119.126 9.78253C101.594 9.78253 98.6225 4.89599 86.4392 4.89599C83.618 4.93671 80.8457 5.63906 78.3454 6.94655C75.8451 8.25403 73.6867 10.1301 72.0437 12.4239L72.2418 12.4239C71.9109 11.0478 71.3043 9.75307 70.4587 8.61806C69.6131 7.48306 68.5461 6.53134 67.3222 5.82047C65.0732 14.1566 65.1532 22.9499 67.5533 31.2437C67.9635 33.9998 68.9785 36.631 70.5254 38.9486C72.0724 41.2662 74.113 43.2128 76.501 44.6487C79.9087 46.1263 83.5834 46.8887 87.2976 46.8887C91.0119 46.8887 94.6866 46.1263 98.0943 44.6487C107.999 39.9603 154.554 17.9708 169.213 11.1032C172.302 9.60167 175.684 8.80119 179.119 8.759C180.765 8.80152 182.386 9.17031 183.889 9.84399C185.392 10.5177 186.746 11.4828 187.873 12.6836C189 13.8844 189.878 15.2968 190.455 16.8391C191.032 18.3815 191.298 20.0231 191.236 21.6687C191.236 27.2817 186.977 32.9606 181.661 32.9606C178.359 32.9606 176.246 31.1117 176.246 28.4703C176.246 22.164 181.628 22.5602 185.029 23.8148C184.493 22.0841 183.384 20.5877 181.883 19.5731C180.382 18.5585 178.58 18.0865 176.774 18.235C176.394 15.7684 175.126 13.5257 173.208 11.9286C172.166 12.6237 171.307 13.5598 170.703 14.6576C170.1 15.7554 169.77 16.9825 169.742 18.235C164.558 16.9473 162.379 20.4141 161.19 23.8148C164.954 22.7253 169.312 22.0319 169.312 28.4703C169.312 33.1918 170.138 36.8897 173.208 39.0688C169.114 39.0688 153.035 39.5641 153.035 39.5641C146.993 39.8282 147.158 31.4749 148.941 26.1591C141.974 28.1401 138.21 32.2673 139.036 41.8093C138.502 40.3518 137.53 39.0958 136.253 38.2146C134.975 37.3334 133.456 36.8704 131.904 36.8897C129.193 37.1042 126.559 37.8957 124.179 39.2111C121.798 40.5265 119.727 42.3354 118.103 44.5167L177.137 46.0355L177.17 46.0355Z" fill="#F2F2F2"/>
<path d="M222.602 46.0356C207.447 46.0356 199.49 32.4325 199.49 21.735C199.49 7.37247 208.108 -0.320541 219.301 -0.320542C225.066 -0.38216 230.751 1.03901 235.809 3.80661C235.809 3.80661 285.335 27.546 304.254 36.8238C307.124 38.0197 310.231 38.5393 313.334 38.3426C316.416 38.1577 319.311 36.7962 321.419 34.5392C323.527 32.2823 324.688 29.3021 324.663 26.2138C324.637 23.1255 323.427 20.1648 321.282 17.9429C319.137 15.7209 316.221 14.4073 313.136 14.2731C305.575 14.2731 302.24 18.1691 302.24 22.1972C302.24 27.1168 304.254 29.0978 307.721 29.0978C310.164 29.0978 311.188 27.9422 311.188 26.2583C311.188 21.9991 305.476 23.2207 305.476 23.2207C305.589 22.6553 305.826 22.1219 306.169 21.6582C306.512 21.1945 306.952 20.812 307.46 20.5378C307.967 20.2637 308.529 20.1046 309.104 20.0718C309.68 20.039 310.256 20.1334 310.791 20.3482C311.145 18.7566 312.002 17.3211 313.235 16.2541C314.382 17.3585 315.165 18.7868 315.48 20.3482C316.053 20.0502 316.694 19.9036 317.34 19.9222C317.986 19.9409 318.617 20.1242 319.172 20.4549C319.728 20.7856 320.19 21.2526 320.514 21.8117C320.839 22.3709 321.015 23.0036 321.027 23.65C319.93 23.1547 318.706 23.0161 317.527 23.2538C317.98 24.5871 318.1 26.0108 317.878 27.4014C317.656 28.7919 317.098 30.1071 316.252 31.2329C315.406 32.3586 314.298 33.2608 313.024 33.8612C311.75 34.4615 310.349 34.7418 308.942 34.6777C301.216 34.6777 294.679 29.3289 296.33 19.2256C295.748 20.3553 294.875 21.309 293.801 21.9882C292.727 22.6674 291.492 23.0473 290.222 23.0887C290.662 21.8436 290.929 20.5436 291.014 19.2256C288.759 21.009 285.965 21.9751 283.09 21.9661C283.915 20.1171 285.5 18.3672 284.51 15.99C277.114 19.7539 266.944 15.1315 264.699 3.37739C269.047 7.35848 274.687 9.63341 280.581 9.78272C298.146 9.78272 301.084 4.89618 313.301 4.89618C316.14 4.98367 318.92 5.73746 321.415 7.09672C323.909 8.45597 326.05 10.3826 327.663 12.7212L327.465 12.7212C327.759 11.2916 328.348 9.93917 329.195 8.75078C330.042 7.56238 331.129 6.56431 332.385 5.82066C334.634 14.1568 334.554 22.95 332.153 31.2439C331.747 33.9593 330.754 36.5535 329.243 38.8458C327.732 41.1382 325.739 43.0735 323.404 44.5169C319.997 45.9963 316.322 46.7598 312.607 46.7598C308.893 46.7598 305.218 45.9963 301.811 44.5169C291.905 39.8284 245.384 17.8389 230.692 10.9713C227.603 9.46876 224.221 8.66822 220.786 8.62712C219.14 8.66965 217.519 9.03844 216.016 9.71211C214.513 10.3858 213.159 11.351 212.032 12.5517C210.905 13.7525 210.027 15.1649 209.45 16.7073C208.873 18.2496 208.607 19.8912 208.669 21.5369C208.669 27.1498 212.928 32.8288 218.244 32.8288C221.546 32.8288 223.626 30.9798 223.626 28.3384C223.626 22.0321 218.244 22.4283 214.876 23.683C215.406 21.9489 216.515 20.449 218.017 19.4335C219.519 18.418 221.324 17.9484 223.131 18.1031C223.48 15.6261 224.754 13.3732 226.696 11.7968C227.702 12.5158 228.525 13.4611 229.099 14.5565C229.672 15.6519 229.98 16.8667 229.998 18.1031C235.149 16.8154 237.328 20.2822 238.55 23.683C234.753 22.5934 230.394 21.9001 230.394 28.3384C230.394 33.0599 229.569 36.7578 226.531 38.9369L246.705 39.4322C252.747 39.6963 252.582 31.343 250.766 26.0272C257.733 28.0082 261.497 32.1354 260.671 41.6774C261.251 40.215 262.271 38.9689 263.59 38.1113C264.909 37.2537 266.462 36.8269 268.034 36.8899C270.744 37.1086 273.376 37.9019 275.756 39.2169C278.136 40.532 280.208 42.3387 281.835 44.5169L222.8 46.0356L222.602 46.0356Z" fill="#F2F2F2"/>
<path d="M651.463 44.5166C651.463 44.5166 657.505 51.6813 654.467 54.1246C649.614 58.0537 625.346 42.0733 616.828 42.0733C602.795 42.0733 598.998 51.4172 597.017 62.9732C596.37 69.7612 596.559 76.6029 597.579 83.3449C598.967 82.5534 600.11 81.3956 600.885 79.9981C601.659 78.6006 602.035 77.0172 601.97 75.4207C603.4 78.2167 605.598 80.5467 608.306 82.1374C611.013 83.7281 614.119 84.5135 617.257 84.4014C629.308 84.4014 634.294 79.4488 647.864 79.4488C655.425 79.4488 665 85.623 665 85.623C664.892 83.3616 664.261 81.1559 663.158 79.1788C662.055 77.2018 660.509 75.5072 658.641 74.2278C656.773 72.9484 654.634 72.119 652.392 71.8047C650.15 71.4904 647.865 71.6997 645.718 72.4162C645.561 71.5832 645.608 70.7247 645.856 69.914C646.103 69.1033 646.543 68.3645 647.138 67.7607C645.874 67.532 644.574 67.6073 643.346 67.9805C642.117 68.3537 640.995 69.014 640.072 69.9069C639.345 68.5532 639.775 67.5296 640.072 65.3835C638.597 65.6226 637.195 66.1923 635.971 67.05C634.748 67.9077 633.734 69.0311 633.006 70.3361C633.648 68.5231 633.84 66.5817 633.566 64.6782C633.292 62.7747 632.56 60.9662 631.433 59.4077C630.307 57.8492 628.819 56.5874 627.097 55.7305C625.376 54.8735 623.472 54.4471 621.549 54.4878C619.332 54.2976 617.127 54.9657 615.388 56.3542C613.65 57.7427 612.51 59.7456 612.205 61.9497C612.242 63.3623 612.677 64.7357 613.46 65.9118C612.648 66.1992 611.784 66.3124 610.925 66.2442C610.066 66.1759 609.231 65.9277 608.474 65.5156C609.201 68.256 610.819 69.9729 614.186 68.8173C614.209 69.7336 614.417 70.6359 614.797 71.4699C615.177 72.304 615.722 73.0526 616.399 73.6708C617.14 73.1064 617.733 72.369 618.124 71.523C618.516 70.677 618.694 69.7481 618.644 68.8173C621.945 70.3361 623.563 68.6192 624.983 66.1759C624.983 66.1759 618.644 67.7277 618.644 63.7326C618.644 61.9167 619.238 60.2658 621.945 60.2658C622.738 60.3258 623.509 60.5476 624.212 60.9175C624.915 61.2873 625.535 61.7975 626.033 62.4164C626.531 63.0352 626.898 63.7497 627.109 64.5156C627.32 65.2815 627.372 66.0825 627.261 66.8693C627.03 71.5577 623.959 75.3547 616.564 75.3547C609.663 75.3547 606.262 69.7748 606.031 62.478C605.833 55.8745 609.333 50.8889 616.2 50.8889C625.28 50.8889 645.916 64.0958 654.005 64.0958C655.357 64.0441 656.684 63.7159 657.904 63.1315C659.125 62.5471 660.212 61.7189 661.1 60.698C661.988 59.6771 662.657 58.4851 663.067 57.1956C663.476 55.906 663.617 54.5462 663.481 53.2001C663.481 46.2665 656.646 40.4555 656.646 40.4555L651.562 44.5166L651.463 44.5166Z" fill="#F2F2F2"/>
<path d="M487.698 42.9983C472.576 42.9983 464.784 56.6014 464.784 67.266C464.784 81.6615 473.401 89.3215 484.594 89.3215C490.357 89.3947 496.042 87.9849 501.103 85.2274C501.103 85.2274 550.463 61.488 569.547 52.2101C572.415 51.0074 575.524 50.4874 578.627 50.6913C581.71 50.8763 584.604 52.2378 586.712 54.4947C588.82 56.7517 589.982 59.7319 589.956 62.8202C589.931 65.9085 588.721 68.8691 586.576 71.0911C584.431 73.313 581.514 74.6267 578.429 74.7609C570.868 74.7609 567.5 70.8649 567.5 66.8368C567.5 61.9172 569.547 59.9362 573.014 59.9362C575.424 59.9362 576.316 61.0918 576.316 62.7756C576.316 67.0019 570.604 65.8132 570.604 65.8132C570.712 66.3816 570.945 66.9188 571.287 67.3858C571.629 67.8528 572.07 68.2377 572.579 68.5128C573.088 68.7879 573.652 68.9461 574.23 68.976C574.808 69.0059 575.385 68.9068 575.92 68.6857C576.273 70.2774 577.13 71.7128 578.363 72.7799C579.656 71.6868 580.56 70.2039 580.938 68.5537C581.513 68.8423 582.151 68.9815 582.794 68.9585C583.437 68.9356 584.063 68.7511 584.616 68.4221C585.169 68.0931 585.63 67.6303 585.956 67.0762C586.283 66.5222 586.465 65.8948 586.485 65.2519C585.377 65.7477 584.142 65.8862 582.952 65.6482C583.354 64.3278 583.433 62.9305 583.185 61.5731C582.936 60.2156 582.366 58.9374 581.523 57.8451C580.679 56.7528 579.587 55.8782 578.336 55.2942C577.086 54.7102 575.714 54.4339 574.335 54.4883C566.609 54.4883 560.071 59.8371 561.722 69.9404C561.135 68.8082 560.256 67.8532 559.177 67.1741C558.097 66.495 556.856 66.1164 555.581 66.0774C556.041 67.3184 556.319 68.6196 556.406 69.9404C554.138 68.1542 551.337 67.1779 548.449 67.1669C549.308 69.0489 550.893 70.7988 549.902 73.1761C542.506 69.4121 532.337 74.0345 529.927 85.7887C534.273 81.805 539.914 79.5297 545.808 79.3833C563.373 79.3833 566.312 84.2699 578.528 84.2699C581.368 84.1824 584.147 83.4286 586.642 82.0693C589.137 80.7101 591.277 78.7834 592.89 76.4448L592.692 76.4448C592.965 77.8612 593.528 79.2057 594.346 80.3934C595.165 81.5811 596.22 82.5863 597.447 83.3454C599.722 75.0142 599.653 66.2168 597.249 57.9221C596.835 55.1631 595.815 52.5301 594.262 50.2123C592.709 47.8945 590.662 45.9495 588.268 44.5171C584.86 43.0396 581.186 42.2772 577.471 42.2772C573.757 42.2772 570.082 43.0396 566.675 44.5171C556.77 49.1726 510.215 71.195 495.556 78.0626C492.467 79.5652 489.085 80.3657 485.651 80.4068C484.003 80.3642 482.38 79.9956 480.875 79.3224C479.371 78.6491 478.015 77.6845 476.885 76.4842C475.755 75.2839 474.874 73.8718 474.294 72.3292C473.713 70.7867 473.443 69.1444 473.5 67.4971C473.5 61.8842 477.759 56.2052 483.108 56.2052C486.41 56.2052 488.49 58.0212 488.49 60.6626C488.49 67.0019 483.108 66.6056 479.74 65.351C480.27 67.0851 481.379 68.585 482.881 69.6005C484.383 70.616 486.188 71.0856 487.995 70.9309C488.344 73.4079 489.618 75.6608 491.561 77.2372C492.606 76.5396 493.47 75.6045 494.084 74.5084C494.699 73.4123 495.044 72.1863 495.093 70.9309C500.244 72.2186 502.423 68.7518 503.645 65.351C499.848 66.4406 495.49 67.1339 495.49 60.6626C495.49 55.9741 494.664 52.2762 491.627 50.097C495.688 50.097 511.8 49.6018 511.8 49.6018C517.842 49.3376 517.677 57.691 515.861 63.0068C522.828 60.9927 526.592 56.8986 525.766 47.3566C526.343 48.7735 527.337 49.9811 528.617 50.8187C529.897 51.6562 531.402 52.084 532.931 52.0451C535.644 51.8185 538.278 51.022 540.662 49.7078C543.046 48.3935 545.126 46.591 546.765 44.4181L487.698 42.8993L487.698 42.9983Z" fill="#F2F2F2"/>
<path d="M442.266 42.9986C457.388 42.9986 465.18 56.6017 465.18 67.2663C465.18 81.6618 456.562 89.3218 445.37 89.3218C439.607 89.3906 433.923 87.981 428.861 85.2277C428.861 85.2277 379.335 61.4883 360.416 52.2105C357.548 51.0077 354.44 50.4877 351.336 50.6916C348.254 50.8766 345.359 52.2381 343.251 54.4951C341.143 56.752 339.982 59.7322 340.007 62.8205C340.033 65.9088 341.243 68.8694 343.388 71.0914C345.533 73.3134 348.449 74.627 351.535 74.7612C359.096 74.7612 362.463 70.8652 362.463 66.8371C362.463 61.9175 360.416 59.9365 356.949 59.9365C354.539 59.9365 353.483 61.0921 353.483 62.776C353.483 67.0022 359.195 65.8135 359.195 65.8135C359.086 66.382 358.853 66.9192 358.511 67.3861C358.17 67.8531 357.728 68.2381 357.219 68.5131C356.71 68.7882 356.146 68.9464 355.569 68.9763C354.991 69.0063 354.413 68.9071 353.879 68.686C353.539 70.2831 352.68 71.7226 351.436 72.7802C350.286 71.682 349.512 70.2494 349.223 68.686C348.646 68.973 348.007 69.111 347.363 69.0876C346.719 69.0641 346.091 68.8799 345.536 68.5517C344.981 68.2235 344.518 67.7618 344.187 67.2086C343.857 66.6554 343.67 66.0282 343.643 65.3843C344.752 65.8779 345.986 66.0163 347.176 65.7805C346.725 64.4499 346.604 63.0293 346.824 61.6415C347.045 60.2538 347.6 58.9406 348.442 57.8157C349.284 56.6907 350.388 55.7879 351.657 55.1852C352.927 54.5825 354.324 54.2981 355.728 54.3566C363.454 54.3566 369.991 59.7054 368.373 69.8086C368.949 68.6745 369.821 67.717 370.896 67.0371C371.971 66.3571 373.21 65.9801 374.482 65.9456C374.021 67.1867 373.743 68.4878 373.656 69.8086C375.925 68.0224 378.726 67.0462 381.613 67.0352C380.755 68.9172 379.17 70.6671 380.193 73.0443C387.556 69.2804 397.726 73.9028 400.004 85.6569C395.658 81.6732 390.016 79.3979 384.123 79.2516C366.557 79.2516 363.619 84.1381 351.402 84.1381C348.563 84.0506 345.783 83.2968 343.288 81.9376C340.794 80.5783 338.653 78.6517 337.04 76.313L337.271 76.313C336.972 77.7405 336.38 79.0906 335.534 80.2782C334.687 81.4658 333.603 82.4653 332.352 83.2136C330.086 74.8797 330.165 66.0817 332.583 57.7904C332.986 55.0321 333.998 52.3982 335.546 50.0796C337.094 47.7611 339.138 45.816 341.53 44.3854C344.938 42.9078 348.613 42.1454 352.327 42.1454C356.041 42.1454 359.716 42.9078 363.124 44.3854C373.029 49.0408 419.583 71.0633 434.243 77.9309C437.331 79.4334 440.714 80.234 444.148 80.2751C445.797 80.2369 447.422 79.8712 448.929 79.1995C450.435 78.5277 451.793 77.5632 452.924 76.362C454.054 75.1608 454.935 73.7469 455.514 72.2024C456.093 70.6579 456.36 69.0137 456.298 67.3654C456.298 61.7524 452.039 56.0735 446.723 56.0735C443.422 56.0735 441.308 57.8894 441.308 60.5308C441.308 66.8701 446.69 66.4739 450.058 65.2192C449.528 66.9533 448.42 68.4533 446.917 69.4688C445.415 70.4842 443.61 70.9538 441.804 70.7991C441.454 73.2761 440.18 75.529 438.238 77.1054C437.23 76.3883 436.406 75.4434 435.832 74.3476C435.258 73.2518 434.951 72.036 434.936 70.7991C429.752 72.0868 427.573 68.62 426.352 65.2192C430.149 66.3088 434.507 67.0022 434.507 60.5308C434.507 55.8423 435.332 52.1444 438.37 49.9653C434.309 49.9653 418.229 49.47 418.229 49.47C412.154 49.2059 412.352 57.5592 414.135 62.875C407.169 60.861 403.405 56.7668 404.23 47.2249C403.679 48.6692 402.694 49.9077 401.412 50.7707C400.129 51.6337 398.611 52.0789 397.065 52.0454C394.353 51.8188 391.718 51.0224 389.334 49.7081C386.95 48.3938 384.871 46.5913 383.231 44.4184L442.266 42.9986Z" fill="#F2F2F2"/>
<path d="M651.463 44.517C651.463 44.517 657.505 37.3523 654.467 34.909C649.614 30.9799 625.346 46.9603 616.828 46.9603C602.795 46.9603 598.998 37.6164 597.017 26.0604C596.337 19.3215 596.481 12.5248 597.447 5.82083C598.835 6.61234 599.978 7.77007 600.753 9.16757C601.527 10.5651 601.903 12.1485 601.838 13.745C603.258 10.9698 605.435 8.6536 608.117 7.06429C610.799 5.47498 613.877 4.67754 616.993 4.76428C629.044 4.76428 634.03 9.71686 647.6 9.71686C655.161 9.71686 664.736 3.54263 664.736 3.54263C664.628 5.80409 663.997 8.0098 662.894 9.98685C661.791 11.9639 660.245 13.6585 658.377 14.9379C656.509 16.2173 654.37 17.0467 652.128 17.361C649.886 17.6753 647.601 17.466 645.454 16.7495C645.297 17.5825 645.344 18.441 645.591 19.2517C645.839 20.0624 646.279 20.8012 646.873 21.405C645.61 21.6337 644.31 21.5584 643.081 21.1852C641.853 20.812 640.731 20.1517 639.808 19.2588C639.081 20.6125 639.511 21.6031 639.808 23.7822C638.33 23.5395 636.926 22.9647 635.702 22.1012C634.478 21.2376 633.466 20.1078 632.742 18.7966C633.39 20.6114 633.587 22.5565 633.317 24.4645C633.046 26.3724 632.315 28.1859 631.188 29.7487C630.061 31.3116 628.57 32.5768 626.845 33.4355C625.12 34.2942 623.212 34.7206 621.285 34.6779C619.069 34.8585 616.867 34.1818 615.135 32.7873C613.403 31.3928 612.271 29.3869 611.974 27.183C612.011 25.7704 612.446 24.3969 613.229 23.2209C612.417 22.9335 611.553 22.8202 610.694 22.8885C609.835 22.9567 609 23.205 608.243 23.6171C608.97 20.8767 610.588 19.1598 613.955 20.3154C613.978 19.3991 614.186 18.4968 614.566 17.6627C614.946 16.8287 615.491 16.0801 616.167 15.4619C616.909 16.0263 617.502 16.7636 617.893 17.6096C618.284 18.4557 618.463 19.3846 618.413 20.3154C621.714 18.7966 623.332 20.5135 624.752 22.9568C624.752 22.9568 618.413 21.405 618.413 25.4C618.413 27.216 619.007 28.7018 621.714 28.7018C622.507 28.6418 623.278 28.42 623.981 28.0501C624.684 27.6802 625.304 27.1701 625.802 26.5512C626.3 25.9324 626.666 25.2179 626.878 24.452C627.089 23.6861 627.141 22.8851 627.03 22.0983C626.799 17.4099 623.728 13.6129 616.333 13.6129C609.432 13.6129 606.031 19.1928 605.8 26.4896C605.602 33.0931 609.102 38.0786 615.969 38.0786C625.049 38.0786 645.685 24.8718 653.774 24.8718C655.152 24.8914 656.511 25.1984 657.763 25.7731C659.016 26.3478 660.134 27.1775 661.048 28.2092C661.962 29.2409 662.65 30.4518 663.069 31.7647C663.488 33.0775 663.628 34.4633 663.481 35.8335C663.481 42.7341 656.647 48.5781 656.647 48.5781L651.562 44.517L651.463 44.517Z" fill="#F2F2F2"/>
<path d="M487.698 46.0355C472.576 46.0355 464.784 32.4324 464.784 21.7348C464.784 7.37228 473.401 -0.320735 484.594 -0.320735C490.36 -0.382353 496.044 1.03882 501.103 3.80642C501.103 3.80642 550.463 27.5458 569.547 36.8236C572.415 38.0264 575.524 38.5463 578.627 38.3424C581.71 38.1575 584.604 36.796 586.712 34.539C588.82 32.2821 589.982 29.3019 589.956 26.2136C589.931 23.1253 588.721 20.1647 586.576 17.9427C584.431 15.7207 581.514 14.4071 578.429 14.2729C570.868 14.2729 567.5 18.1689 567.5 22.197C567.5 27.1166 569.547 29.0976 573.014 29.0976C575.424 29.0976 576.316 27.942 576.316 26.2581C576.316 21.9989 570.604 23.2205 570.604 23.2205C570.712 22.6521 570.945 22.1149 571.287 21.648C571.629 21.181 572.07 20.7961 572.579 20.521C573.088 20.2459 573.652 20.0877 574.23 20.0578C574.808 20.0278 575.385 20.127 575.92 20.3481C576.273 18.7564 577.13 17.321 578.363 16.2539C579.511 17.3583 580.294 18.7867 580.608 20.3481C581.183 20.0594 581.821 19.9202 582.464 19.9431C583.107 19.9661 583.733 20.1506 584.286 20.4796C584.839 20.8086 585.299 21.2714 585.626 21.8255C585.953 22.3795 586.135 23.0069 586.155 23.6498C585.047 23.154 583.812 23.0156 582.622 23.2536C583.039 24.5548 583.143 25.9365 582.923 27.2853C582.703 28.6341 582.167 29.9116 581.359 31.0133C580.55 32.115 579.492 33.0095 578.271 33.6234C577.05 34.2374 575.701 34.5533 574.335 34.5454C566.609 34.5454 560.071 29.1967 561.722 19.0934C561.135 20.2256 560.256 21.1806 559.177 21.8597C558.097 22.5388 556.856 22.9174 555.581 22.9564C556.041 21.7154 556.319 20.4142 556.406 19.0934C554.141 20.8815 551.335 21.8477 548.449 21.8338C549.308 19.9849 550.893 18.2349 549.902 15.8577C542.506 19.6217 532.337 14.9993 529.927 3.24513C534.273 7.22878 539.914 9.50414 545.808 9.65048C563.373 9.65048 566.312 4.76392 578.528 4.76392C581.368 4.85141 584.147 5.6052 586.642 6.96445C589.137 8.32371 591.277 10.2504 592.89 12.589L592.692 12.589C592.982 11.1963 593.553 9.87742 594.37 8.71345C595.188 7.54948 596.235 6.56498 597.447 5.82047C599.722 14.1516 599.653 22.949 597.249 31.2437C596.835 34.0027 595.815 36.6358 594.262 38.9536C592.709 41.2714 590.662 43.2164 588.268 44.6487C584.86 46.1263 581.186 46.8887 577.471 46.8887C573.757 46.8887 570.082 46.1263 566.675 44.6487C556.77 39.9603 510.215 17.9708 495.556 11.1032C492.467 9.60064 489.085 8.8001 485.651 8.759C484.003 8.80161 482.38 9.17019 480.875 9.84346C479.371 10.5167 478.015 11.4814 476.885 12.6816C475.755 13.8819 474.874 15.2941 474.294 16.8366C473.713 18.3791 473.443 20.0215 473.5 21.6688C473.5 27.2817 477.759 32.9606 483.108 32.9606C486.41 32.9606 488.49 31.1117 488.49 28.4703C488.49 22.164 483.108 22.5602 479.74 23.8149C480.27 22.0808 481.379 20.5808 482.881 19.5653C484.383 18.5499 486.188 18.0803 487.995 18.235C488.344 15.758 489.618 13.5051 491.561 11.9287C492.593 12.6335 493.445 13.5718 494.048 14.6675C494.65 15.7632 494.986 16.9853 495.027 18.235C500.178 16.9473 502.357 20.4141 503.579 23.8148C499.782 22.7253 495.424 22.0319 495.424 28.4703C495.424 33.1918 494.598 36.8897 491.561 39.0688L511.734 39.5641C517.776 39.8282 517.611 31.4749 515.795 26.1591C522.762 28.1401 526.526 32.2673 525.7 41.8093C526.271 40.3466 527.284 39.0988 528.598 38.2404C529.912 37.382 531.462 36.9559 533.03 37.0217C535.745 37.2401 538.382 38.033 540.767 39.3479C543.152 40.6628 545.231 42.4697 546.864 44.6487L487.797 46.1675L487.698 46.0355Z" fill="#F2F2F2"/>
<path d="M442.266 46.0355C457.388 46.0355 465.18 32.4324 465.18 21.7348C465.18 7.37228 456.562 -0.320736 445.37 -0.320736C439.604 -0.377924 433.921 1.04297 428.861 3.80642C428.861 3.80642 379.335 27.5458 360.416 36.8236C357.548 38.0264 354.44 38.5464 351.336 38.3424C348.254 38.1575 345.359 36.796 343.251 34.539C341.143 32.2821 339.982 29.3019 340.007 26.2136C340.033 23.1253 341.243 20.1647 343.388 17.9427C345.533 15.7207 348.449 14.4071 351.535 14.2729C359.096 14.2729 362.463 18.1689 362.463 22.197C362.463 27.1166 360.416 29.0976 356.949 29.0976C354.539 29.0976 353.483 27.942 353.483 26.2581C353.483 21.9989 359.195 23.2205 359.195 23.2205C359.086 22.6521 358.853 22.115 358.511 21.648C358.17 21.181 357.728 20.7961 357.219 20.521C356.71 20.2459 356.146 20.0877 355.569 20.0578C354.991 20.0279 354.413 20.127 353.879 20.3481C353.539 18.7511 352.68 17.3115 351.436 16.2539C350.286 17.3521 349.512 18.7847 349.223 20.3481C348.647 20.0519 348.006 19.9066 347.358 19.9259C346.711 19.9451 346.079 20.1282 345.522 20.458C344.964 20.7878 344.5 21.2536 344.171 21.8118C343.843 22.37 343.661 23.0024 343.643 23.6498C344.752 23.1562 345.986 23.0178 347.176 23.2536C346.725 24.5842 346.604 26.0048 346.824 27.3926C347.045 28.7803 347.6 30.0935 348.442 31.2184C349.284 32.3433 350.388 33.2462 351.657 33.8489C352.927 34.4516 354.324 34.736 355.728 34.6775C363.454 34.6775 369.991 29.3287 368.373 19.2255C368.949 20.3596 369.821 21.3171 370.896 21.9971C371.971 22.677 373.21 23.0541 374.482 23.0885C374.021 21.8474 373.743 20.5462 373.656 19.2255C375.922 21.0136 378.727 21.9798 381.613 21.9659C380.755 20.1169 379.17 18.367 380.193 15.9898C387.556 19.7537 397.726 15.1313 400.004 3.3772C395.658 7.36086 390.016 9.63619 384.123 9.78253C366.557 9.78253 363.619 4.896 351.402 4.896C348.563 4.98349 345.783 5.73727 343.288 7.09653C340.794 8.45579 338.653 10.3824 337.04 12.7211L337.271 12.7211C336.972 11.2936 336.38 9.94353 335.534 8.75591C334.687 7.56829 333.603 6.56884 332.352 5.82048C330.086 14.1544 330.165 22.9523 332.583 31.2437C332.986 34.002 333.998 36.6359 335.546 38.9545C337.094 41.273 339.138 43.2181 341.53 44.6487C344.938 46.1263 348.613 46.8887 352.327 46.8887C356.041 46.8887 359.716 46.1263 363.124 44.6487C373.029 39.9603 419.583 17.9708 434.243 11.1032C437.331 9.60064 440.714 8.8001 444.148 8.759C445.797 8.79723 447.422 9.16286 448.929 9.83462C450.435 10.5064 451.793 11.4709 452.924 12.6721C454.054 13.8733 454.935 15.2872 455.514 16.8317C456.093 18.3761 456.36 20.0204 456.298 21.6687C456.298 27.2817 452.039 32.9606 446.723 32.9606C443.422 32.9606 441.308 31.1117 441.308 28.4703C441.308 22.164 446.69 22.5602 450.058 23.8148C449.528 22.0808 448.42 20.5808 446.917 19.5653C445.415 18.5499 443.61 18.0803 441.804 18.235C441.454 15.758 440.18 13.5051 438.238 11.9287C437.23 12.6458 436.406 13.5907 435.832 14.6865C435.258 15.7823 434.951 16.9981 434.936 18.235C429.752 16.9473 427.573 20.4141 426.352 23.8148C430.149 22.7253 434.507 22.0319 434.507 28.4703C434.507 33.1918 435.332 36.8897 438.37 39.0688C434.309 39.0688 418.229 39.5641 418.229 39.5641C412.154 39.8282 412.352 31.4749 414.135 26.1591C407.169 28.1401 403.405 32.2673 404.23 41.8093C403.664 40.3437 402.652 39.0931 401.337 38.234C400.022 37.375 398.47 36.9509 396.9 37.0217C394.185 37.2401 391.548 38.033 389.163 39.3479C386.778 40.6628 384.7 42.4697 383.066 44.6487L442.266 46.0355Z" fill="#F2F2F2"/>
</svg>
