<svg width="28" height="28" viewBox="0 0 28 28" fill="none" xmlns="http://www.w3.org/2000/svg">
<path d="M13.6879 1.74923C12.0952 1.75245 10.5192 2.07378 9.05232 2.69435C7.58548 3.31492 6.25737 4.22224 5.14594 5.36305C4.03451 6.50386 3.16215 7.85518 2.58005 9.33771C1.99795 10.8202 1.71784 12.4041 1.75617 13.9964C1.79449 15.5886 2.15047 17.1572 2.80321 18.61C3.45596 20.0628 4.39232 21.3706 5.55735 22.4566C6.72238 23.5426 8.09259 24.385 9.58759 24.9343C11.0826 25.4835 12.6722 25.7287 14.2633 25.6553L13.7121 13.7086L13.6879 1.74923Z" fill="#E9E744"/>
<path d="M13.8065 25.6866C15.377 25.6759 16.93 25.356 18.3769 24.7452C19.8238 24.1343 21.1362 23.2445 22.2391 22.1265C23.3421 21.0084 24.2141 19.6841 24.8052 18.2291C25.3964 16.7741 25.6952 15.2168 25.6845 13.6464C25.6739 12.0759 25.354 10.5228 24.7432 9.07596C24.1323 7.62909 23.2425 6.3167 22.1245 5.21373C21.0064 4.11075 19.6821 3.23878 18.2271 2.64762C16.772 2.05646 15.2148 1.75767 13.6443 1.76832L13.7254 13.7274L13.8065 25.6866Z" fill="#29B630"/>
</svg>
