<svg width="45" height="45" viewBox="0 0 45 45" fill="none" xmlns="http://www.w3.org/2000/svg">
<path d="M21.7561 38.7105C21.8973 38.893 22.1141 38.9997 22.3438 38.9997C22.5735 38.9997 22.7903 38.893 22.9314 38.7105L38.5721 18.4605C38.7466 18.2344 38.7781 17.928 38.6532 17.6707C38.6394 17.6465 38.624 17.6232 38.6071 17.601H38.613L33.3995 9.35098C33.2592 9.14086 33.0222 9.01729 32.7709 9.02323V8.99998H11.9167V9.02323C11.6661 9.01646 11.4292 9.13854 11.2881 9.34723L6.07456 17.5972H6.08051C6.06359 17.6194 6.04817 17.6427 6.03434 17.667C5.90946 17.9243 5.94096 18.2307 6.11552 18.4567L21.7561 38.7105ZM23.7008 10.5H31.4139L27.5573 16.6027L23.7008 10.5ZM26.2003 17.25H18.4873L22.3438 11.1472L26.2003 17.25ZM17.1302 16.6027L13.2737 10.5H20.9868L17.1302 16.6027ZM8.22626 18.75H16.559L20.9711 35.25L8.22626 18.75ZM23.7447 35.2147L26.1422 26.475C26.24 26.0803 26.0075 25.6791 25.6181 25.5706C25.2288 25.4622 24.8246 25.686 24.707 26.0752L22.3542 34.65L18.1022 18.75H26.5928L25.6737 22.3117C25.5955 22.5749 25.6664 22.8602 25.8586 23.0552C26.0508 23.2502 26.3336 23.3237 26.5955 23.2469C26.8575 23.1701 27.0567 22.9552 27.1149 22.6867L28.133 18.75H36.4613L23.7447 35.2147ZM36.6274 17.25H28.9143L32.7709 11.1472L36.6274 17.25ZM11.9167 11.1472L15.7732 17.25H8.06017L11.9167 11.1472Z" fill="#00ABC2"/>
<path d="M0.744792 23.25H2.97917C3.3905 23.25 3.72396 22.9142 3.72396 22.5C3.72396 22.0858 3.3905 21.75 2.97917 21.75H0.744792C0.333455 21.75 0 22.0858 0 22.5C0 22.9142 0.333455 23.25 0.744792 23.25Z" fill="#00ABC2"/>
<path d="M41.7083 23.25H43.9427C44.354 23.25 44.6875 22.9142 44.6875 22.5C44.6875 22.0858 44.354 21.75 43.9427 21.75H41.7083C41.297 21.75 40.9635 22.0858 40.9635 22.5C40.9635 22.9142 41.297 23.25 41.7083 23.25Z" fill="#00ABC2"/>
<path d="M23.0885 44.25V42C23.0885 41.5858 22.7551 41.25 22.3437 41.25C21.9324 41.25 21.5989 41.5858 21.5989 42V44.25C21.5989 44.6642 21.9324 45 22.3437 45C22.7551 45 23.0885 44.6642 23.0885 44.25Z" fill="#00ABC2"/>
<path d="M22.3437 3.75C22.7551 3.75 23.0885 3.41421 23.0885 3V0.75C23.0885 0.335786 22.7551 0 22.3437 0C21.9324 0 21.5989 0.335786 21.5989 0.75V3C21.5989 3.41421 21.9324 3.75 22.3437 3.75Z" fill="#00ABC2"/>
<path d="M8.12422 35.7585L6.54452 37.35C6.34332 37.5365 6.25977 37.819 6.32689 38.0859C6.39401 38.3529 6.601 38.5613 6.86609 38.6289C7.13118 38.6965 7.41173 38.6124 7.59691 38.4097L9.17662 36.819C9.45887 36.5247 9.45484 36.0569 9.16754 35.7676C8.88025 35.4783 8.41572 35.4743 8.12348 35.7585H8.12422Z" fill="#00ABC2"/>
<path d="M36.0368 9.46128C36.2343 9.46124 36.4237 9.3822 36.5634 9.24154L38.1431 7.65004C38.3443 7.46356 38.4278 7.18104 38.3607 6.9141C38.2936 6.64716 38.0866 6.43873 37.8215 6.37114C37.5564 6.30355 37.2759 6.38768 37.0907 6.59029L35.511 8.18104C35.2981 8.39553 35.2344 8.71806 35.3496 8.99828C35.4649 9.27849 35.7364 9.46122 36.0376 9.46128H36.0368Z" fill="#00ABC2"/>
<path d="M37.6164 38.6295C37.9176 38.6294 38.1891 38.4467 38.3044 38.1665C38.4196 37.8863 38.356 37.5637 38.143 37.3492L36.5633 35.7585C36.2711 35.4743 35.8065 35.4783 35.5192 35.7676C35.232 36.0569 35.2279 36.5247 35.5102 36.819L37.0906 38.4097C37.2301 38.5502 37.4192 38.6293 37.6164 38.6295Z" fill="#00ABC2"/>
<path d="M8.12422 9.24154C8.41646 9.52576 8.88099 9.5217 9.16829 9.2324C9.45558 8.9431 9.45961 8.47532 9.17736 8.18104L7.59691 6.59029C7.41173 6.38768 7.13118 6.30355 6.86609 6.37114C6.601 6.43873 6.39401 6.64716 6.32689 6.9141C6.25977 7.18104 6.34332 7.46356 6.54452 7.65004L8.12422 9.24154Z" fill="#00ABC2"/>
</svg>
