<svg width="54" height="65" viewBox="0 0 54 65" fill="none" xmlns="http://www.w3.org/2000/svg">
<path d="M41.6037 26.6558C40.8661 25.3148 39.7821 24.1965 38.4647 23.4175C37.1474 22.6386 35.645 22.2277 34.1146 22.2278H31.0579V15.8175H39.6049C43.2872 15.8134 46.8174 14.3487 49.4212 11.745C52.0249 9.14124 53.4895 5.61098 53.4937 1.92872C53.4937 1.64537 53.3811 1.37363 53.1808 1.17327C52.9804 0.972915 52.7087 0.860354 52.4253 0.860352H1.14357C0.860217 0.860354 0.588475 0.972915 0.388117 1.17327C0.187759 1.37363 0.0751981 1.64537 0.0751953 1.92872C0.079363 5.61098 1.54398 9.14124 4.14774 11.745C6.75149 14.3487 10.2817 15.8134 13.964 15.8175H22.511V22.2278H19.4543C17.9239 22.2277 16.4215 22.6386 15.1042 23.4175C13.7868 24.1965 12.7028 25.3148 11.9652 26.6558L11.6118 27.2985C5.45357 38.5136 2.22077 51.0996 2.21194 63.8942C2.21194 64.1775 2.3245 64.4493 2.52486 64.6496C2.72522 64.85 2.99696 64.9626 3.28031 64.9626H50.2886C50.5719 64.9626 50.8437 64.85 51.044 64.6496C51.2444 64.4493 51.357 64.1775 51.357 63.8942C51.3481 51.0996 48.1153 38.5136 41.9571 27.2985L41.6037 26.6558ZM2.26006 2.99709H51.3088C51.0388 5.91557 49.6894 8.62824 47.5247 10.6042C45.36 12.5802 42.5358 13.6773 39.6049 13.6808H13.964C11.0331 13.6773 8.20891 12.5802 6.04421 10.6042C3.87952 8.62824 2.53011 5.91557 2.26006 2.99709ZM24.6477 15.8175H28.9212V22.2278H24.6477V15.8175ZM4.3565 62.8258C4.53989 50.7543 7.67347 38.9109 13.484 28.3282L13.8375 27.6855C14.3906 26.6798 15.2037 25.841 16.1917 25.2569C17.1797 24.6727 18.3065 24.3645 19.4543 24.3645H34.1146C35.2624 24.3645 36.3892 24.6727 37.3772 25.2569C38.3652 25.841 39.1783 26.6798 39.7314 27.6855L40.0849 28.3282C45.8954 38.9109 49.029 50.7543 49.2124 62.8258H4.3565Z" fill="#EFF7FB"/>
<path d="M26.7843 27.5693C23.6148 27.5693 20.5164 28.5092 17.881 30.2701C15.2456 32.031 13.1916 34.5339 11.9787 37.4622C10.7657 40.3905 10.4484 43.6127 11.0667 46.7213C11.6851 49.83 13.2114 52.6855 15.4526 54.9267C17.6938 57.1679 20.5493 58.6942 23.6579 59.3125C26.7666 59.9309 29.9888 59.6135 32.9171 58.4006C35.8453 57.1876 38.3482 55.1336 40.1091 52.4982C41.87 49.8628 42.8099 46.7644 42.8099 43.5949C42.8051 39.3461 41.1151 35.2728 38.1108 32.2684C35.1065 29.2641 31.0331 27.5742 26.7843 27.5693ZM34.6307 55.0485L33.5856 53.2383L31.7351 54.3066L32.7823 56.1205C31.2358 56.8644 29.5639 57.3129 27.8527 57.443V55.347H25.716V57.443C24.0048 57.3129 22.3329 56.8644 20.7864 56.1205L21.8336 54.3066L19.9831 53.2383L18.938 55.0485C17.5248 54.0771 16.3021 52.8544 15.3307 51.4413L17.1409 50.3961L16.0725 48.5458L14.2588 49.5929C13.5149 48.0464 13.0664 46.3745 12.9362 44.6633H15.0323V42.5265H12.9362C13.0664 40.8153 13.5149 39.1434 14.2588 37.5968L16.0725 38.644L17.1409 36.7937L15.3307 35.7485C16.3021 34.3354 17.5248 33.1127 18.9379 32.1413L19.9831 33.9515L21.8336 32.8831L20.7864 31.0693C22.3329 30.3254 24.0048 29.8769 25.716 29.7468V31.8428H27.8527V29.7468C29.5639 29.8769 31.2358 30.3254 32.7823 31.0693L31.7351 32.8831L33.5856 33.9515L34.6307 32.1413C36.0439 33.1127 37.2666 34.3354 38.238 35.7485L36.4278 36.7937L37.4962 38.644L39.3099 37.5968C40.0538 39.1434 40.5023 40.8153 40.6325 42.5265H38.5364V44.6633H40.6325C40.5023 46.3745 40.0538 48.0464 39.3099 49.5929L37.4962 48.5458L36.4278 50.3961L38.238 51.4413C37.2666 52.8544 36.0439 54.0771 34.6307 55.0485Z" fill="#EFF7FB"/>
<path d="M27.8526 40.5735V35.0479H25.7158V40.5735C25.003 40.8255 24.4022 41.3214 24.0197 41.9736C23.6371 42.6257 23.4974 43.3921 23.6253 44.1373C23.7531 44.8825 24.1403 45.5585 24.7184 46.0458C25.2964 46.5331 26.0281 46.8004 26.7842 46.8004C27.5403 46.8004 28.272 46.5331 28.8501 46.0458C29.4281 45.5585 29.8153 44.8825 29.9432 44.1373C30.071 43.3921 29.9313 42.6257 29.5488 41.9736C29.1662 41.3214 28.5654 40.8255 27.8526 40.5735ZM26.7842 44.6632C26.5729 44.6632 26.3664 44.6005 26.1907 44.4831C26.015 44.3657 25.878 44.1989 25.7972 44.0037C25.7163 43.8084 25.6952 43.5936 25.7364 43.3864C25.7776 43.1791 25.8794 42.9888 26.0288 42.8394C26.1782 42.6899 26.3685 42.5882 26.5758 42.547C26.783 42.5057 26.9978 42.5269 27.1931 42.6078C27.3883 42.6886 27.5551 42.8256 27.6725 43.0013C27.7899 43.177 27.8526 43.3835 27.8526 43.5948C27.8523 43.8781 27.7396 44.1496 27.5393 44.3499C27.339 44.5502 27.0675 44.6629 26.7842 44.6632Z" fill="#EFF7FB"/>
</svg>
