<svg width="34" height="33" viewBox="0 0 34 33" fill="none" xmlns="http://www.w3.org/2000/svg">
<path d="M29.8613 2.2509H28.7895V0.606671C28.7895 0.303976 28.5496 0.0585938 28.2536 0.0585938C27.9577 0.0585938 27.7177 0.303976 27.7177 0.606671V2.2509H25.5741V0.606671C25.5741 0.303976 25.3342 0.0585938 25.0382 0.0585938C24.7423 0.0585938 24.5023 0.303976 24.5023 0.606671V2.2509H22.3587V0.606671C22.3587 0.303976 22.1188 0.0585938 21.8229 0.0585938C21.5269 0.0585938 21.287 0.303976 21.287 0.606671V2.2509H19.1434V0.606671C19.1434 0.303976 18.9034 0.0585938 18.6075 0.0585938C18.3115 0.0585938 18.0716 0.303976 18.0716 0.606671V2.2509H15.928V0.606671C15.928 0.303976 15.6881 0.0585938 15.3921 0.0585938C15.0961 0.0585938 14.8562 0.303976 14.8562 0.606671V2.2509H12.7126V0.606671C12.7126 0.303976 12.4727 0.0585938 12.1767 0.0585938C11.8807 0.0585938 11.6408 0.303976 11.6408 0.606671V2.2509H9.49721V0.606671C9.49721 0.303976 9.25728 0.0585938 8.96131 0.0585938C8.66535 0.0585938 8.42542 0.303976 8.42542 0.606671V2.2509H6.28183V0.606671C6.28183 0.303976 6.0419 0.0585938 5.74593 0.0585938C5.44996 0.0585938 5.21003 0.303976 5.21003 0.606671V2.2509H4.13824C2.36316 2.25271 0.924624 3.72395 0.922852 5.53936V29.6547C0.924624 31.4702 2.36316 32.9414 4.13824 32.9432H29.8613C31.6364 32.9414 33.0749 31.4702 33.0767 29.6547V5.53936C33.0749 3.72395 31.6364 2.25271 29.8613 2.2509ZM32.0049 29.6547C32.0049 30.8655 31.0452 31.8471 29.8613 31.8471H4.13824C2.95436 31.8471 1.99465 30.8655 1.99465 29.6547V5.53936C1.99465 4.32858 2.95436 3.34706 4.13824 3.34706H5.21003V3.89513C5.21003 4.19783 5.44996 4.44321 5.74593 4.44321C6.0419 4.44321 6.28183 4.19783 6.28183 3.89513V3.34706H8.42542V3.89513C8.42542 4.19783 8.66535 4.44321 8.96131 4.44321C9.25728 4.44321 9.49721 4.19783 9.49721 3.89513V3.34706H11.6408V3.89513C11.6408 4.19783 11.8807 4.44321 12.1767 4.44321C12.4727 4.44321 12.7126 4.19783 12.7126 3.89513V3.34706H14.8562V3.89513C14.8562 4.19783 15.0961 4.44321 15.3921 4.44321C15.6881 4.44321 15.928 4.19783 15.928 3.89513V3.34706H18.0716V3.89513C18.0716 4.19783 18.3115 4.44321 18.6075 4.44321C18.9034 4.44321 19.1434 4.19783 19.1434 3.89513V3.34706H21.287V3.89513C21.287 4.19783 21.5269 4.44321 21.8229 4.44321C22.1188 4.44321 22.3587 4.19783 22.3587 3.89513V3.34706H24.5023V3.89513C24.5023 4.19783 24.7423 4.44321 25.0382 4.44321C25.3342 4.44321 25.5741 4.19783 25.5741 3.89513V3.34706H27.7177V3.89513C27.7177 4.19783 27.9577 4.44321 28.2536 4.44321C28.5496 4.44321 28.7895 4.19783 28.7895 3.89513V3.34706H29.8613C31.0452 3.34706 32.0049 4.32858 32.0049 5.53936V29.6547Z" fill="#00ABC2"/>
<path d="M29.3254 5.53937H4.67413C3.78623 5.53937 3.06644 6.27552 3.06644 7.1836V29.1067C3.06644 30.0148 3.78623 30.7509 4.67413 30.7509H29.3254C30.2133 30.7509 30.9331 30.0148 30.9331 29.1067V7.1836C30.9331 6.27552 30.2133 5.53937 29.3254 5.53937ZM29.8613 29.1067C29.8613 29.4094 29.6214 29.6548 29.3254 29.6548H4.67413C4.37817 29.6548 4.13824 29.4094 4.13824 29.1067V7.1836C4.13824 6.88091 4.37817 6.63552 4.67413 6.63552H29.3254C29.6214 6.63552 29.8613 6.88091 29.8613 7.1836V29.1067Z" fill="#00ABC2"/>
<path d="M13.7844 7.73168C12.6005 7.73168 11.6408 8.71321 11.6408 9.92399C11.6408 11.1348 12.6005 12.1163 13.7844 12.1163C14.9682 12.1163 15.928 11.1348 15.928 9.92399C15.928 8.71321 14.9682 7.73168 13.7844 7.73168ZM13.7844 11.0201C13.1924 11.0201 12.7126 10.5294 12.7126 9.92399C12.7126 9.3186 13.1924 8.82784 13.7844 8.82784C14.3763 8.82784 14.8562 9.3186 14.8562 9.92399C14.8562 10.5294 14.3763 11.0201 13.7844 11.0201Z" fill="#00ABC2"/>
<path d="M20.2151 7.73168C19.0313 7.73168 18.0716 8.71321 18.0716 9.92399C18.0716 11.1348 19.0313 12.1163 20.2151 12.1163C21.399 12.1163 22.3587 11.1348 22.3587 9.92399C22.3587 8.71321 21.399 7.73168 20.2151 7.73168ZM20.2151 11.0201C19.6232 11.0201 19.1434 10.5294 19.1434 9.92399C19.1434 9.3186 19.6232 8.82784 20.2151 8.82784C20.8071 8.82784 21.2869 9.3186 21.2869 9.92399C21.2869 10.5294 20.8071 11.0201 20.2151 11.0201Z" fill="#00ABC2"/>
<path d="M26.6459 7.73168C25.4621 7.73168 24.5024 8.71321 24.5024 9.92399C24.5024 11.1348 25.4621 12.1163 26.6459 12.1163C27.8298 12.1163 28.7895 11.1348 28.7895 9.92399C28.7895 8.71321 27.8298 7.73168 26.6459 7.73168ZM26.6459 11.0201C26.054 11.0201 25.5742 10.5294 25.5742 9.92399C25.5742 9.3186 26.054 8.82784 26.6459 8.82784C27.2379 8.82784 27.7177 9.3186 27.7177 9.92399C27.7177 10.5294 27.2379 11.0201 26.6459 11.0201Z" fill="#00ABC2"/>
<path d="M7.35361 13.2125C6.16973 13.2125 5.21002 14.194 5.21002 15.4048C5.21002 16.6155 6.16973 17.5971 7.35361 17.5971C8.53748 17.5971 9.4972 16.6155 9.4972 15.4048C9.4972 14.194 8.53748 13.2125 7.35361 13.2125ZM7.35361 16.5009C6.76167 16.5009 6.28181 16.0102 6.28181 15.4048C6.28181 14.7994 6.76167 14.3086 7.35361 14.3086C7.94554 14.3086 8.4254 14.7994 8.4254 15.4048C8.4254 16.0102 7.94554 16.5009 7.35361 16.5009Z" fill="#00ABC2"/>
<path d="M7.35361 18.6932C6.16973 18.6932 5.21002 19.6747 5.21002 20.8855C5.21002 22.0963 6.16973 23.0778 7.35361 23.0778C8.53748 23.0778 9.4972 22.0963 9.4972 20.8855C9.4972 19.6747 8.53748 18.6932 7.35361 18.6932ZM7.35361 21.9817C6.76167 21.9817 6.28181 21.4909 6.28181 20.8855C6.28181 20.2801 6.76167 19.7894 7.35361 19.7894C7.94554 19.7894 8.4254 20.2801 8.4254 20.8855C8.4254 21.4909 7.94554 21.9817 7.35361 21.9817Z" fill="#00ABC2"/>
<path d="M13.7844 18.6932C12.6005 18.6932 11.6408 19.6747 11.6408 20.8855C11.6408 22.0963 12.6005 23.0778 13.7844 23.0778C14.9682 23.0778 15.928 22.0963 15.928 20.8855C15.928 19.6747 14.9682 18.6932 13.7844 18.6932ZM13.7844 21.9817C13.1924 21.9817 12.7126 21.4909 12.7126 20.8855C12.7126 20.2801 13.1924 19.7894 13.7844 19.7894C14.3763 19.7894 14.8562 20.2801 14.8562 20.8855C14.8562 21.4909 14.3763 21.9817 13.7844 21.9817Z" fill="#00ABC2"/>
<path d="M20.2151 18.6932C19.0313 18.6932 18.0716 19.6747 18.0716 20.8855C18.0716 22.0963 19.0313 23.0778 20.2151 23.0778C21.399 23.0778 22.3587 22.0963 22.3587 20.8855C22.3587 19.6747 21.399 18.6932 20.2151 18.6932ZM20.2151 21.9817C19.6232 21.9817 19.1434 21.4909 19.1434 20.8855C19.1434 20.2801 19.6232 19.7894 20.2151 19.7894C20.8071 19.7894 21.2869 20.2801 21.2869 20.8855C21.2869 21.4909 20.8071 21.9817 20.2151 21.9817Z" fill="#00ABC2"/>
<path d="M26.6459 18.6932C25.4621 18.6932 24.5024 19.6747 24.5024 20.8855C24.5024 22.0963 25.4621 23.0778 26.6459 23.0778C27.8298 23.0778 28.7895 22.0963 28.7895 20.8855C28.7895 19.6747 27.8298 18.6932 26.6459 18.6932ZM26.6459 21.9817C26.054 21.9817 25.5742 21.4909 25.5742 20.8855C25.5742 20.2801 26.054 19.7894 26.6459 19.7894C27.2379 19.7894 27.7177 20.2801 27.7177 20.8855C27.7177 21.4909 27.2379 21.9817 26.6459 21.9817Z" fill="#00ABC2"/>
<path d="M7.35361 24.174C6.16973 24.174 5.21002 25.1555 5.21002 26.3663C5.21002 27.5771 6.16973 28.5586 7.35361 28.5586C8.53748 28.5586 9.4972 27.5771 9.4972 26.3663C9.4972 25.1555 8.53748 24.174 7.35361 24.174ZM7.35361 27.4625C6.76167 27.4625 6.28181 26.9717 6.28181 26.3663C6.28181 25.7609 6.76167 25.2701 7.35361 25.2701C7.94554 25.2701 8.4254 25.7609 8.4254 26.3663C8.4254 26.9717 7.94554 27.4625 7.35361 27.4625Z" fill="#00ABC2"/>
<path d="M13.7844 24.174C12.6005 24.174 11.6408 25.1555 11.6408 26.3663C11.6408 27.5771 12.6005 28.5586 13.7844 28.5586C14.9682 28.5586 15.928 27.5771 15.928 26.3663C15.928 25.1555 14.9682 24.174 13.7844 24.174ZM13.7844 27.4625C13.1924 27.4625 12.7126 26.9717 12.7126 26.3663C12.7126 25.7609 13.1924 25.2701 13.7844 25.2701C14.3763 25.2701 14.8562 25.7609 14.8562 26.3663C14.8562 26.9717 14.3763 27.4625 13.7844 27.4625Z" fill="#00ABC2"/>
<path d="M20.2151 24.174C19.0313 24.174 18.0716 25.1555 18.0716 26.3663C18.0716 27.5771 19.0313 28.5586 20.2151 28.5586C21.399 28.5586 22.3587 27.5771 22.3587 26.3663C22.3587 25.1555 21.399 24.174 20.2151 24.174ZM20.2151 27.4625C19.6232 27.4625 19.1434 26.9717 19.1434 26.3663C19.1434 25.7609 19.6232 25.2701 20.2151 25.2701C20.8071 25.2701 21.2869 25.7609 21.2869 26.3663C21.2869 26.9717 20.8071 27.4625 20.2151 27.4625Z" fill="#00ABC2"/>
<path d="M26.6459 24.174C25.4621 24.174 24.5024 25.1555 24.5024 26.3663C24.5024 27.5771 25.4621 28.5586 26.6459 28.5586C27.8298 28.5586 28.7895 27.5771 28.7895 26.3663C28.7895 25.1555 27.8298 24.174 26.6459 24.174ZM26.6459 27.4625C26.054 27.4625 25.5742 26.9717 25.5742 26.3663C25.5742 25.7609 26.054 25.2701 26.6459 25.2701C27.2379 25.2701 27.7177 25.7609 27.7177 26.3663C27.7177 26.9717 27.2379 27.4625 26.6459 27.4625Z" fill="#00ABC2"/>
<path d="M13.2485 17.597C13.2663 17.5982 13.2842 17.5982 13.3021 17.597C13.4617 17.5808 13.6059 17.4924 13.6949 17.3559L15.8385 14.0674C15.9448 13.9045 15.958 13.696 15.8731 13.5204C15.7883 13.3449 15.6184 13.2289 15.4273 13.2163C15.2362 13.2036 15.053 13.2962 14.9468 13.4591L13.1654 16.1885L12.5556 15.5653C12.3453 15.3576 12.0111 15.3606 11.8044 15.572C11.5976 15.7834 11.5947 16.1253 11.7978 16.3403L12.8696 17.4365C12.9701 17.5393 13.1064 17.597 13.2485 17.597Z" fill="#00ABC2"/>
<path d="M19.6792 17.597C19.6971 17.5982 19.715 17.5982 19.7328 17.597C19.8925 17.5808 20.0366 17.4924 20.1257 17.3559L22.2692 14.0674C22.3755 13.9045 22.3887 13.696 22.3039 13.5204C22.2191 13.3449 22.0491 13.2289 21.858 13.2163C21.6669 13.2036 21.4838 13.2962 21.3775 13.4591L19.5962 16.1885L18.9863 15.5653C18.7761 15.3576 18.4418 15.3606 18.2351 15.572C18.0284 15.7834 18.0255 16.1253 18.2286 16.3403L19.3004 17.4365C19.4008 17.5393 19.5371 17.597 19.6792 17.597Z" fill="#00ABC2"/>
<path d="M26.11 17.597C26.1279 17.5982 26.1458 17.5982 26.1636 17.597C26.3232 17.5808 26.4674 17.4924 26.5564 17.3559L28.7 14.0674C28.8063 13.9045 28.8195 13.696 28.7347 13.5204C28.6498 13.3449 28.4799 13.2289 28.2888 13.2163C28.0977 13.2036 27.9145 13.2962 27.8083 13.4591L26.027 16.1885L25.4171 15.5653C25.2068 15.3576 24.8726 15.3606 24.6659 15.572C24.4592 15.7834 24.4563 16.1253 24.6594 16.3403L25.7311 17.4365C25.8316 17.5393 25.9679 17.597 26.11 17.597Z" fill="#00ABC2"/>
</svg>
