<svg width="44" height="45" viewBox="0 0 44 45" fill="none" xmlns="http://www.w3.org/2000/svg">
<g clip-path="url(#clip0_2195_1192)">
<path d="M37.777 34.958C37.0313 34.9586 36.3023 34.733 35.6821 34.3097C35.0619 33.8865 34.5783 33.2846 34.2926 32.5802C34.0069 31.8759 33.9318 31.1007 34.077 30.3527C34.2221 29.6047 34.5809 28.9176 35.1079 28.3781C35.635 27.8387 36.3066 27.4713 37.0378 27.3223C37.7691 27.1734 38.5271 27.2495 39.216 27.5412C39.905 27.8329 40.4938 28.327 40.9081 28.961C41.3224 29.595 41.5436 30.3405 41.5436 31.103C41.5431 32.1248 41.1462 33.1046 40.44 33.8274C39.7338 34.5502 38.776 34.9568 37.777 34.958ZM37.777 28.6543C37.3033 28.6537 36.8401 28.7969 36.446 29.0656C36.0519 29.3344 35.7446 29.7166 35.5629 30.164C35.3813 30.6114 35.3335 31.1039 35.4256 31.579C35.5176 32.0542 35.7455 32.4908 36.0802 32.8336C36.4149 33.1763 36.8416 33.4098 37.3061 33.5045C37.7706 33.5993 38.2522 33.5509 38.6899 33.3657C39.1275 33.1804 39.5016 32.8665 39.7648 32.4638C40.0281 32.061 40.1686 31.5875 40.1686 31.103C40.1683 30.4542 39.9164 29.8319 39.468 29.3728C39.0196 28.9137 38.4114 28.6553 37.777 28.6543Z" fill="#00ABC2"/>
<path d="M17.9136 34.958C17.168 34.9588 16.4388 34.7333 15.8185 34.3102C15.1982 33.887 14.7145 33.2852 14.4286 32.5809C14.1427 31.8765 14.0676 31.1013 14.2126 30.3533C14.3576 29.6052 14.7163 28.918 15.2433 28.3785C15.7703 27.839 16.442 27.4714 17.1732 27.3224C17.9045 27.1733 18.6626 27.2495 19.3516 27.5411C20.0405 27.8328 20.6294 28.3269 21.0438 28.9609C21.4581 29.595 21.6793 30.3404 21.6793 31.103C21.6786 32.1246 21.2817 33.1041 20.5758 33.8268C19.8698 34.5495 18.9125 34.9563 17.9136 34.958ZM17.9136 28.6543C17.4399 28.6536 16.9766 28.7965 16.5824 29.0652C16.1882 29.3338 15.8807 29.716 15.6989 30.1633C15.5172 30.6107 15.4692 31.1032 15.5612 31.5785C15.6532 32.0537 15.8809 32.4904 16.2156 32.8332C16.5503 33.1761 16.9769 33.4097 17.4415 33.5045C17.9061 33.5993 18.3877 33.551 18.8254 33.3658C19.2631 33.1805 19.6373 32.8667 19.9005 32.4639C20.1638 32.0611 20.3043 31.5875 20.3043 31.103C20.3038 30.4544 20.0519 29.8324 19.6038 29.3734C19.1556 28.9144 18.5479 28.6558 17.9136 28.6543Z" fill="#00ABC2"/>
<path d="M42.736 31.8058H40.8559C40.6736 31.8058 40.4987 31.7317 40.3698 31.5998C40.2409 31.468 40.1684 31.2891 40.1684 31.1027C40.1684 30.9162 40.2409 30.7373 40.3698 30.6055C40.4987 30.4736 40.6736 30.3995 40.8559 30.3995H42.5417V26.6711C42.5412 26.167 42.415 25.6714 42.175 25.2311L38.4534 18.407C38.4216 18.3488 38.3752 18.3003 38.3189 18.2665C38.2627 18.2327 38.1987 18.2149 38.1334 18.2148H33.0615V30.4023H34.6987C34.881 30.4023 35.0559 30.4764 35.1848 30.6083C35.3138 30.7401 35.3862 30.919 35.3862 31.1055C35.3862 31.2919 35.3138 31.4708 35.1848 31.6027C35.0559 31.7345 34.881 31.8086 34.6987 31.8086H32.374C32.1917 31.8086 32.0168 31.7345 31.8879 31.6027C31.759 31.4708 31.6865 31.2919 31.6865 31.1055V17.5117C31.6865 17.3252 31.759 17.1464 31.8879 17.0145C32.0168 16.8827 32.1917 16.8086 32.374 16.8086H38.1334C38.4436 16.8084 38.7482 16.893 39.0157 17.0535C39.2832 17.2141 39.5039 17.4447 39.6551 17.7217L43.3759 24.5467C43.7296 25.1963 43.9154 25.9275 43.9158 26.6711V30.5992C43.9153 30.9191 43.7908 31.2257 43.5697 31.4518C43.3486 31.678 43.0488 31.8053 42.736 31.8058Z" fill="#00ABC2"/>
<path d="M14.8344 31.8059H8.24268C8.06034 31.8059 7.88547 31.7319 7.75654 31.6C7.62761 31.4681 7.55518 31.2893 7.55518 31.1028V25.6953C7.55518 25.5088 7.62761 25.33 7.75654 25.1981C7.88547 25.0663 8.06034 24.9922 8.24268 24.9922C8.42501 24.9922 8.59988 25.0663 8.72881 25.1981C8.85774 25.33 8.93018 25.5088 8.93018 25.6953V30.3997H14.8344C15.0168 30.3997 15.1916 30.4738 15.3206 30.6056C15.4495 30.7375 15.5219 30.9163 15.5219 31.1028C15.5219 31.2893 15.4495 31.4681 15.3206 31.6C15.1916 31.7319 15.0168 31.8059 14.8344 31.8059Z" fill="#00ABC2"/>
<path d="M8.24268 23.1998C8.06034 23.1998 7.88547 23.1257 7.75654 22.9938C7.62761 22.862 7.55518 22.6831 7.55518 22.4966V17.7754C7.55518 17.5889 7.62761 17.4101 7.75654 17.2782C7.88547 17.1463 8.06034 17.0723 8.24268 17.0723C8.42501 17.0723 8.59988 17.1463 8.72881 17.2782C8.85774 17.4101 8.93018 17.5889 8.93018 17.7754V22.4995C8.92945 22.6854 8.85669 22.8636 8.72784 22.9948C8.59899 23.1261 8.42454 23.1998 8.24268 23.1998Z" fill="#00ABC2"/>
<path d="M32.3739 31.8048H20.9917C20.8093 31.8048 20.6345 31.7308 20.5055 31.5989C20.3766 31.467 20.3042 31.2882 20.3042 31.1017C20.3042 30.9152 20.3766 30.7364 20.5055 30.6045C20.6345 30.4727 20.8093 30.3986 20.9917 30.3986H31.6864V12.0039H8.93018V14.8998C8.93018 15.0863 8.85774 15.2652 8.72881 15.397C8.59988 15.5289 8.42501 15.603 8.24268 15.603C8.06034 15.603 7.88547 15.5289 7.75654 15.397C7.62761 15.2652 7.55518 15.0863 7.55518 14.8998V11.8745C7.55566 11.5359 7.68748 11.2112 7.92171 10.9719C8.15595 10.7325 8.47346 10.5979 8.80459 10.5977H31.8129C32.1439 10.5982 32.4612 10.7328 32.6952 10.9722C32.9292 11.2115 33.0609 11.536 33.0614 11.8745V31.1017C33.0614 31.2882 32.989 31.467 32.8601 31.5989C32.7311 31.7308 32.5563 31.8048 32.3739 31.8048Z" fill="#00ABC2"/>
<path d="M10.9606 26.3984H2.23486C2.05253 26.3984 1.87766 26.3244 1.74873 26.1925C1.6198 26.0606 1.54736 25.8818 1.54736 25.6953C1.54736 25.5088 1.6198 25.33 1.74873 25.1981C1.87766 25.0663 2.05253 24.9922 2.23486 24.9922H10.9606C11.143 24.9922 11.3178 25.0663 11.4467 25.1981C11.5757 25.33 11.6481 25.5088 11.6481 25.6953C11.6481 25.8818 11.5757 26.0606 11.4467 26.1925C11.3178 26.3244 11.143 26.3984 10.9606 26.3984Z" fill="#00ABC2"/>
<path d="M17.9134 23.2012H5.7373C5.55497 23.2012 5.3801 23.1271 5.25117 22.9952C5.12224 22.8634 5.0498 22.6845 5.0498 22.498C5.0498 22.3116 5.12224 22.1327 5.25117 22.0009C5.3801 21.869 5.55497 21.7949 5.7373 21.7949H17.9134C18.0957 21.7949 18.2706 21.869 18.3995 22.0009C18.5285 22.1327 18.6009 22.3116 18.6009 22.498C18.6009 22.6845 18.5285 22.8634 18.3995 22.9952C18.2706 23.1271 18.0957 23.2012 17.9134 23.2012Z" fill="#00ABC2"/>
<path d="M5.35875 19.4883H0.604004C0.421668 19.4883 0.246799 19.4142 0.117868 19.2823C-0.0110633 19.1505 -0.0834961 18.9716 -0.0834961 18.7852C-0.0834961 18.5987 -0.0110633 18.4198 0.117868 18.288C0.246799 18.1561 0.421668 18.082 0.604004 18.082H5.35875C5.54109 18.082 5.71596 18.1561 5.84489 18.288C5.97382 18.4198 6.04625 18.5987 6.04625 18.7852C6.04625 18.9716 5.97382 19.1505 5.84489 19.2823C5.71596 19.4142 5.54109 19.4883 5.35875 19.4883Z" fill="#00ABC2"/>
<path d="M12.9828 15.6035H4.58984C4.40751 15.6035 4.23264 15.5294 4.10371 15.3976C3.97478 15.2657 3.90234 15.0869 3.90234 14.9004C3.90234 14.7139 3.97478 14.5351 4.10371 14.4032C4.23264 14.2713 4.40751 14.1973 4.58984 14.1973H12.9828C13.1652 14.1973 13.34 14.2713 13.469 14.4032C13.5979 14.5351 13.6703 14.7139 13.6703 14.9004C13.6703 15.0869 13.5979 15.2657 13.469 15.3976C13.34 15.5294 13.1652 15.6035 12.9828 15.6035Z" fill="#00ABC2"/>
</g>
<defs>
<clipPath id="clip0_2195_1192">
<rect width="44" height="45" fill="white"/>
</clipPath>
</defs>
</svg>
