<svg width="19" height="19" viewBox="0 0 19 19" fill="none" xmlns="http://www.w3.org/2000/svg">
<path d="M9.5 19C14.7467 19 19 14.7467 19 9.5C19 4.25329 14.7467 0 9.5 0C4.25329 0 0 4.25329 0 9.5C0 14.7467 4.25329 19 9.5 19Z" fill="#29A71A"/>
<path d="M13.6887 5.31065C12.7003 4.31239 11.3877 3.70019 9.98767 3.58448C8.58765 3.46877 7.19236 3.85716 6.05348 4.67959C4.91461 5.50203 4.10711 6.70437 3.77665 8.06974C3.44619 9.43511 3.61452 10.8736 4.25128 12.1258L3.62622 15.1604C3.61974 15.1906 3.61955 15.2218 3.62568 15.2521C3.63181 15.2824 3.64412 15.3111 3.66185 15.3364C3.68781 15.3748 3.72487 15.4044 3.76808 15.4211C3.81129 15.4379 3.85859 15.4411 3.90367 15.4303L6.87781 14.7254C8.12648 15.346 9.55485 15.5035 10.9087 15.1699C12.2626 14.8362 13.4543 14.033 14.2716 12.9033C15.0889 11.7735 15.4789 10.3904 15.3721 9.00009C15.2654 7.60978 14.6688 6.30242 13.6887 5.31065ZM12.7613 12.712C12.0775 13.394 11.1968 13.8441 10.2436 13.9991C9.29031 14.154 8.31246 14.0059 7.44781 13.5757L7.03327 13.3705L5.20992 13.8024L5.21531 13.7797L5.59316 11.9445L5.3902 11.5439C4.94841 10.6763 4.79256 9.69106 4.94498 8.7294C5.0974 7.76774 5.55028 6.879 6.23872 6.19048C7.10377 5.3257 8.27686 4.8399 9.50003 4.8399C10.7232 4.8399 11.8963 5.3257 12.7613 6.19048C12.7687 6.19893 12.7766 6.20686 12.7851 6.21423C13.6394 7.08124 14.1163 8.25083 14.1119 9.46802C14.1074 10.6852 13.622 11.8513 12.7613 12.712Z" fill="white"/>
<path d="M12.5994 11.3666C12.3759 11.7185 12.0229 12.1493 11.5792 12.2561C10.802 12.444 9.60907 12.2626 8.1247 10.8786L8.10635 10.8624C6.80118 9.65228 6.4622 8.64506 6.54424 7.8462C6.58959 7.39279 6.96743 6.98256 7.28589 6.71484C7.33624 6.67186 7.39595 6.64127 7.46023 6.6255C7.52452 6.60973 7.59161 6.60922 7.65612 6.62401C7.72064 6.6388 7.78081 6.66849 7.8318 6.71069C7.8828 6.75289 7.92321 6.80644 7.94981 6.86705L8.43021 7.9466C8.46143 8.01659 8.473 8.09377 8.46368 8.16985C8.45436 8.24592 8.4245 8.31802 8.37731 8.37842L8.13441 8.69364C8.0823 8.75873 8.05085 8.83793 8.04411 8.92104C8.03738 9.00415 8.05567 9.08738 8.09663 9.16001C8.23265 9.39859 8.55868 9.74944 8.92032 10.0744C9.32623 10.4414 9.7764 10.7772 10.0614 10.8916C10.1377 10.9228 10.2215 10.9304 10.3021 10.9134C10.3827 10.8965 10.4564 10.8558 10.5137 10.7966L10.7955 10.5127C10.8499 10.4591 10.9175 10.4208 10.9914 10.4019C11.0654 10.3829 11.1431 10.3839 11.2165 10.4047L12.3576 10.7286C12.4205 10.7479 12.4782 10.7813 12.5263 10.8264C12.5743 10.8714 12.6114 10.9268 12.6347 10.9884C12.6581 11.0499 12.667 11.116 12.6609 11.1816C12.6548 11.2471 12.6337 11.3104 12.5994 11.3666Z" fill="white"/>
</svg>
