<svg width="34" height="35" viewBox="0 0 34 35" fill="none" xmlns="http://www.w3.org/2000/svg">
<path d="M30.5982 14.2404H22.8376C25.8871 9.93681 24.9751 5.69 25.1411 4.04855C25.1411 0.332349 20.2402 -0.723207 18.8543 2.73431C17.9025 4.53535 17.2435 9.47194 12.1868 11.9758L9.61069 13.2522V13.0786C9.61069 12.3034 8.99368 11.6723 8.23569 11.6723H3.93749C2.04217 11.6723 0.5 13.2496 0.5 15.188V30.2715C0.5 32.2099 2.04217 33.7871 3.93749 33.7871H8.23569C8.99368 33.7871 9.61069 33.156 9.61069 32.3808V32.3479C13.7449 33.3251 16.003 34.3714 19.8809 34.3714H27.1466C28.7472 34.3714 30.049 33.0063 30.049 31.3282C30.049 30.6274 29.8128 29.9892 29.4318 29.4741C30.5095 29.029 31.2769 27.9326 31.2769 26.6467C31.2769 25.9458 31.0406 25.3075 30.6594 24.7924C31.7368 24.3473 32.5042 23.251 32.5042 21.9651C32.5042 21.227 32.2422 20.5585 31.8238 20.0308C32.9085 19.4976 33.4999 18.4134 33.4999 17.2829C33.4999 15.6054 32.1981 14.2404 30.5982 14.2404ZM3.93749 32.3808C2.80016 32.3808 1.875 31.4346 1.875 30.2715V15.188C1.875 14.0248 2.80016 13.0786 3.93749 13.0786H8.23569C8.23569 39.0769 8.23511 12.4869 8.23703 32.3808H3.93749ZM30.5982 18.9192C30.5276 18.9192 26.4529 18.9213 26.5235 18.9212C26.1435 18.9212 25.836 19.2357 25.836 19.6244C25.836 20.013 26.1435 20.3275 26.5235 20.3275H29.6012C30.4437 20.3275 31.1292 21.0622 31.1292 21.9651C31.1292 22.8681 30.4437 23.6028 29.6012 23.6028C29.4506 23.6028 24.9961 23.6028 25.2956 23.6028C24.9156 23.6028 24.6081 23.9173 24.6081 24.3059C24.6081 24.6945 24.9156 25.009 25.2956 25.009C25.4541 25.009 28.4623 25.009 28.3739 25.009C29.2164 25.009 29.9019 25.7437 29.9019 26.6467C29.9019 27.5496 29.2164 28.2843 28.3739 28.2843C27.9129 28.2843 23.9019 28.2843 24.0683 28.2843C23.6883 28.2843 23.3808 28.5988 23.3808 28.9874C23.3808 29.3761 23.6883 29.6906 24.0683 29.6906C24.2852 29.6906 27.2485 29.6906 27.1466 29.6906C27.9885 29.6906 28.674 30.4253 28.674 31.3282C28.674 32.2311 27.9885 32.9652 27.1466 32.9652H19.8809C16.2151 32.9652 14.1609 31.981 9.61069 30.8956V14.8151L12.7857 13.242C18.4489 10.4375 19.1968 5.00338 20.1272 3.2651C20.9443 1.22712 23.7662 1.87114 23.7662 4.04856C23.6073 5.67643 24.5104 9.53745 21.6896 13.4679L20.9302 14.5281C20.6003 14.9866 20.9428 15.6466 21.4848 15.6466H30.5982C31.4401 15.6466 32.1249 16.3807 32.1249 17.2829C32.1249 18.2073 31.4175 18.9192 30.5982 18.9192Z" fill="#00ABC2"/>
</svg>
