<svg width="69" height="70" viewBox="0 0 69 70" fill="none" xmlns="http://www.w3.org/2000/svg">
<circle cx="34.7845" cy="34.9115" r="33.3678" stroke="#EFF7FB" stroke-width="1.64"/>
<circle cx="34.7848" cy="34.9112" r="7.72696" stroke="#EFF7FB" stroke-width="1.64"/>
<path d="M63.2686 34.9112C63.2686 39.1787 59.8091 42.6382 55.5416 42.6382C51.2741 42.6382 47.8146 39.1787 47.8146 34.9112C47.8146 30.6437 51.2741 27.1843 55.5416 27.1843C59.8091 27.1843 63.2686 30.6437 63.2686 34.9112Z" stroke="#EFF7FB" stroke-width="1.64"/>
<path d="M21.7544 34.9112C21.7544 39.1787 18.2949 42.6382 14.0274 42.6382C9.75995 42.6382 6.30047 39.1787 6.30047 34.9112C6.30047 30.6437 9.75995 27.1843 14.0274 27.1843C18.2949 27.1843 21.7544 30.6437 21.7544 34.9112Z" stroke="#EFF7FB" stroke-width="1.64"/>
<path d="M42.5117 15.3751C42.5117 19.6426 39.0522 23.102 34.7848 23.102C30.5173 23.102 27.0578 19.6426 27.0578 15.3751C27.0578 11.1076 30.5173 7.64812 34.7848 7.64812C39.0522 7.64812 42.5117 11.1076 42.5117 15.3751Z" stroke="#EFF7FB" stroke-width="1.64"/>
<path d="M42.5117 54.4474C42.5117 58.7148 39.0522 62.1743 34.7848 62.1743C30.5173 62.1743 27.0578 58.7148 27.0578 54.4474C27.0578 50.1799 30.5173 46.7204 34.7848 46.7204C39.0522 46.7204 42.5117 50.1799 42.5117 54.4474Z" stroke="#EFF7FB" stroke-width="1.64"/>
<path d="M27.8594 49.5636C27.8594 53.831 24.3999 57.2905 20.1324 57.2905C15.8649 57.2905 12.4054 53.831 12.4054 49.5636C12.4054 45.2961 15.8649 41.8366 20.1324 41.8366C24.3999 41.8366 27.8594 45.2961 27.8594 49.5636Z" stroke="#EFF7FB" stroke-width="1.64"/>
<circle cx="49.4366" cy="49.5636" r="7.72696" stroke="#EFF7FB" stroke-width="1.64"/>
<path d="M57.1636 20.2599C57.1636 24.5273 53.7041 27.9868 49.4366 27.9868C45.1691 27.9868 41.7096 24.5273 41.7096 20.2599C41.7096 15.9924 45.1691 12.5329 49.4366 12.5329C53.7041 12.5329 57.1636 15.9924 57.1636 20.2599Z" stroke="#EFF7FB" stroke-width="1.64"/>
<circle cx="20.1324" cy="20.2599" r="7.72696" stroke="#EFF7FB" stroke-width="1.64"/>
</svg>
