<svg width="44" height="33" viewBox="0 0 44 33" fill="none" xmlns="http://www.w3.org/2000/svg">
<path d="M43.8713 15.3122L39.0506 2.03825C38.86 1.51328 38.4797 1.09527 37.9798 0.860869C37.4796 0.626904 36.9221 0.604931 36.4087 0.799521L33.1821 2.02498C32.12 2.42857 31.5767 3.64085 31.9711 4.72718L32.0234 4.87132C31.2601 5.16769 30.4081 4.84398 29.1058 4.28614C27.1613 3.45355 24.5239 2.33559 21.1759 4.47722C18.4586 2.74744 16.3264 3.17415 14.4381 3.55867C13.4789 3.75361 12.5653 3.93713 11.6218 3.83729C11.5952 3.58372 11.5273 3.33385 11.41 3.09944C11.1591 2.59864 10.7341 2.2281 10.2133 2.05627L6.93777 0.975654C6.41673 0.803828 5.86012 0.850585 5.37062 1.10652C4.88112 1.36308 4.5188 1.79778 4.35097 2.3304L0.0993829 15.8065C-0.248406 16.9094 0.345938 18.0961 1.42445 18.4518L4.69987 19.5328C4.90655 19.6011 5.11873 19.6349 5.33005 19.6349C5.65172 19.6349 5.97149 19.5565 6.26686 19.4019C6.44931 19.3063 6.607 19.1789 6.7506 19.038C6.7708 19.1399 6.79787 19.2407 6.82227 19.342L6.00226 20.9099C5.6506 21.5827 5.58245 22.3985 5.81569 23.1478C6.04274 23.8775 6.52158 24.4602 7.14961 24.7811C7.69695 25.0806 8.29988 25.1742 8.8724 25.0879C8.70886 25.6426 8.71195 26.2509 8.88924 26.8209C9.11629 27.5506 9.59513 28.1335 10.2232 28.4544C10.8801 28.8137 11.6362 28.8887 12.3528 28.667C12.639 28.5781 12.905 28.4463 13.1434 28.2769C13.3734 28.9952 13.8485 29.5685 14.4694 29.8858C15.1262 30.2451 15.8823 30.32 16.5989 30.0984C16.7579 30.0489 16.9109 29.9863 17.0561 29.9114C17.2715 30.796 17.8866 31.5838 18.6532 32.0032C19.0194 32.2034 19.4506 32.3324 19.8983 32.3324C20.7118 32.3324 21.5792 31.906 22.2067 30.7064L22.3291 30.4723C22.3768 30.4978 22.4242 30.5233 22.4678 30.5466L22.795 30.7212C23.1959 30.9322 23.5876 31.0252 23.956 31.0252C24.8749 31.0252 25.6468 30.446 26.0414 29.6768C26.3132 29.1475 26.4088 28.5182 26.277 27.9074C26.6085 27.9249 26.9438 27.8846 27.2714 27.7831C28.0073 27.555 28.6112 27.0497 28.9718 26.3602C29.2631 25.8032 29.3686 25.1779 29.2807 24.5613C29.8962 24.8226 30.5769 24.8566 31.2261 24.6555C31.9684 24.4255 32.5775 23.9155 32.9412 23.2202C33.2384 22.6514 33.344 22.0123 33.2495 21.3832C34.2527 21.7922 35.2206 21.6052 35.8926 20.8521C36.5739 20.089 36.803 18.9198 36.5482 17.8764C36.6009 17.8571 36.6543 17.8375 36.7136 17.8157L36.723 17.8122L36.7918 18.0014C37.0992 18.8472 37.8859 19.3712 38.7205 19.3712C38.9577 19.3712 39.1987 19.329 39.4337 19.2398L42.6601 18.0143C43.7225 17.6107 44.2658 16.3987 43.8713 15.3122ZM6.15506 17.8045C6.08441 18.0282 5.9317 18.2111 5.72477 18.3194C5.51748 18.4277 5.2833 18.4476 5.06494 18.3756L1.78934 17.2944C1.33491 17.1445 1.0844 16.6445 1.23092 16.1798L5.48268 2.70376C5.55315 2.48025 5.70586 2.29735 5.91271 2.18907C6.03775 2.12359 6.17302 2.09028 6.30871 2.09028C6.3974 2.09028 6.486 2.10435 6.57237 2.13282C6.57254 2.13282 6.57254 2.13282 6.57254 2.133L9.84813 3.21379C10.0667 3.28586 10.2455 3.44204 10.3514 3.65359C10.4573 3.86523 10.4768 4.10474 10.4064 4.32842L7.01211 15.0878C6.99724 15.1172 6.98289 15.1472 6.97266 15.1797C6.94284 15.2738 6.91981 15.369 6.8936 15.4636L6.15506 17.8045ZM7.69591 23.701C7.34288 23.5207 7.07751 23.1933 6.94886 22.7791C6.81239 22.3406 6.8496 21.8684 7.05087 21.4835L7.97727 19.7121C7.97745 19.7119 7.9777 19.7117 7.97779 19.7115L8.42028 18.8653C8.83252 18.0774 9.78772 17.773 10.5629 18.173C11.0714 18.5366 11.8341 19.3098 11.2554 20.4162L10.9401 21.0191L9.88483 23.0368C9.46614 23.8342 8.49144 24.1366 7.69591 23.701ZM12.9597 26.7077C12.7584 27.0929 12.4202 27.3754 12.0076 27.5032C11.5952 27.6311 11.1604 27.588 10.7695 27.3744C10.4164 27.194 10.1511 26.8665 10.0224 26.4523C9.88595 26.0141 9.92333 25.5418 10.1246 25.157L10.9334 23.6107L11.9887 21.5929C12.1899 21.2079 12.5281 20.9255 12.9405 20.7976C13.3532 20.6694 13.7875 20.7127 14.1643 20.9187C14.5408 21.1246 14.817 21.4704 14.942 21.8925C15.067 22.3143 15.0248 22.7589 14.8233 23.1441L14.527 23.711C14.5268 23.7116 14.5264 23.7122 14.5261 23.7128L13.3222 26.0147C13.3222 26.0149 13.3222 26.0149 13.322 26.0151L12.9597 26.7077ZM16.2538 28.9345C15.8412 29.0624 15.4068 29.0193 15.0157 28.8057C14.6627 28.6253 14.3975 28.2979 14.2687 27.8839C14.1326 27.446 14.1694 26.9748 14.3699 26.5901L14.3709 26.5884L15.5747 24.2864C15.5748 24.2862 15.5749 24.2859 15.575 24.2857L15.5757 24.2845C15.7772 23.9003 16.115 23.6187 16.5268 23.4909C16.939 23.3625 17.3738 23.4059 17.7503 23.6121C18.5319 24.0396 18.8277 25.0379 18.4097 25.8372L17.8078 26.9883L17.2743 28.0085C17.2741 28.0089 17.2738 28.0093 17.2736 28.0097L17.2059 28.1391C17.0047 28.524 16.6663 28.8067 16.2538 28.9345ZM19.214 30.9308C18.4346 30.5044 17.8768 29.4349 18.3229 28.5819L18.8565 27.5617L18.8571 27.5603C19.0652 27.1636 19.4351 26.8449 19.8723 26.6861C20.3088 26.5274 20.747 26.5486 21.1065 26.7453C21.89 27.1737 22.0165 27.5485 22.0431 27.7932C22.0837 28.1631 21.9306 28.655 21.5472 29.3881C21.547 29.3887 21.5468 29.3893 21.5465 29.3898L21.158 30.1328C20.4999 31.3922 19.6578 31.1733 19.214 30.9308ZM24.9885 29.1119C24.7081 29.6592 24.0895 30.0349 23.3393 29.6402L23.0207 29.4701C22.968 29.4417 22.9189 29.4153 22.8732 29.391C23.114 28.8432 23.2895 28.248 23.2249 27.6579C23.152 26.9925 22.791 26.4376 22.136 25.9695L24.4777 27.2557C25.2603 27.8176 25.2576 28.5876 24.9885 29.1119ZM35.0143 20.0323C34.6315 20.4616 34.106 20.498 33.452 20.1399L31.7561 19.2123C31.7549 19.2117 31.7538 19.2111 31.7526 19.2106C31.7352 19.2011 31.7171 19.1956 31.6993 19.1881L26.2308 16.1523C25.9429 15.9917 25.5815 16.1014 25.4247 16.3967C25.2682 16.6918 25.375 17.0608 25.6637 17.2211L31.2479 20.3212C31.6175 20.5428 31.892 20.8915 32.0183 21.3172C32.1511 21.7654 32.1064 22.2375 31.8923 22.6467C31.6784 23.0558 31.3192 23.3559 30.881 23.4917C30.442 23.6274 29.9808 23.5818 29.5811 23.3631L27.895 22.4407C27.8657 22.4163 27.8341 22.394 27.7995 22.3751L23.7304 20.15C23.4404 19.9912 23.0804 20.1036 22.9258 20.3996C22.771 20.6957 22.8801 21.0641 23.1699 21.2224L27.1368 23.3916C27.1662 23.4162 27.1981 23.4387 27.2329 23.4576C27.6271 23.6732 27.9163 24.0351 28.0471 24.4769C28.1779 24.9186 28.1338 25.3837 27.923 25.7867C27.7122 26.19 27.3582 26.4855 26.9264 26.6195C26.4948 26.7531 26.0398 26.7082 25.6457 26.4926L24.7849 26.0218C24.7416 25.9982 24.6966 25.9825 24.6511 25.9706L21.177 24.0628C20.8877 23.9028 20.5271 24.0147 20.372 24.3108C20.2166 24.6065 20.3252 24.9753 20.6146 25.1341L21.3447 25.535C20.849 25.3482 20.306 25.3128 19.7627 25.4512C19.9162 24.2999 19.3698 23.1186 18.3111 22.5394C17.6605 22.1835 16.9119 22.1061 16.2014 22.3209C16.1963 22.0596 16.1561 21.7971 16.0799 21.5396C15.8627 20.8066 15.3814 20.2052 14.7248 19.8461C14.0648 19.4854 13.3255 19.4233 12.6564 19.6141C12.645 18.581 12.0038 17.7219 11.2402 17.1736C11.2141 17.1531 11.1863 17.1346 11.1566 17.1184C10.0167 16.4951 8.63891 16.7645 7.79448 17.6869C7.78082 17.0545 7.86538 16.4195 8.03717 15.7981L11.4308 5.04086C12.5779 5.17665 13.6394 4.96141 14.6697 4.75135C16.3826 4.40295 18.0094 4.07178 20.1115 5.24362C19.6535 5.61654 19.1929 6.04211 18.7349 6.51522C18.3724 6.89017 17.9996 7.26449 17.636 7.62968C16.3101 8.96148 15.1651 10.1117 14.8377 10.928C14.7585 11.1254 14.7862 11.3506 14.9106 11.5216C17.2772 14.7767 20.1452 13.6722 22.4487 12.785C24.1757 12.1197 25.6672 11.5449 26.8554 12.5065C26.8779 12.5247 26.9015 12.5411 26.9262 12.5558C27.4937 12.892 28.2753 13.2868 29.1803 13.7439C31.3683 14.8492 34.3651 16.3629 35.1395 17.5667C35.6598 18.375 35.4947 19.494 35.0143 20.0323ZM36.0405 16.771C35.0025 15.3313 32.0764 13.8503 29.7072 12.6538C28.8405 12.2159 28.0893 11.8366 27.5578 11.5245C25.8511 10.1754 23.9088 10.9233 22.0299 11.647C19.8029 12.5043 17.8664 13.2498 16.0976 11.0975C16.5131 10.4625 17.5052 9.46598 18.4693 8.49769C18.837 8.12828 19.2137 7.74982 19.5803 7.37093C20.2155 6.71474 20.8512 6.16278 21.471 5.72658C24.4663 3.62002 26.6867 4.56915 28.6464 5.40789C29.5626 5.80023 30.4979 6.20066 31.423 6.20066C31.7628 6.20066 32.1008 6.13721 32.4365 6.00897L36.3089 16.6722C36.2187 16.7054 36.1273 16.7391 36.0405 16.771ZM42.2463 16.8742L39.0199 18.0996C38.5709 18.2691 38.0724 18.0355 37.9064 17.5778L33.0859 4.30346C33.006 4.08338 33.0152 3.84326 33.112 3.62705C33.209 3.41093 33.3808 3.24684 33.5961 3.16501L36.8225 1.93955C36.9195 1.90272 37.0204 1.88436 37.1212 1.88436C37.2447 1.88436 37.368 1.91186 37.4843 1.96627C37.6954 2.06523 37.8559 2.24119 37.9358 2.46153L42.7564 15.7356C42.9227 16.1935 42.6938 16.7041 42.2463 16.8742Z" fill="#00ABC2"/>
</svg>
