<svg width="69" height="36" viewBox="0 0 69 36" fill="none" xmlns="http://www.w3.org/2000/svg">
<path d="M-20.7764 0.223148C-21 0.446293 -21 0.591339 -21 18.4096C-21 36.2278 -21 36.3729 -20.7764 36.596C-20.5528 36.8192 -20.4074 36.8192 35.1851 36.8192C90.7775 36.8192 90.9229 36.8192 91.1465 36.596C91.3701 36.3729 91.3701 36.2278 91.3701 18.4096C91.3701 0.591339 91.3701 0.446293 91.1465 0.223148C90.9229 0 90.7775 0 35.1851 0C-20.4074 0 -20.5528 0 -20.7764 0.223148ZM24.1493 9.88539C25.9159 10.2424 27.157 10.9119 28.4876 12.2173C29.9411 13.6454 30.7126 15.2297 30.9922 17.3162C31.1375 18.3873 31.0257 19.648 30.7014 20.7638C30.4778 21.5336 29.7399 22.9394 29.315 23.4304C28.9907 23.8097 28.9796 23.8209 28.8007 23.5977C28.2081 22.8502 27.4925 20.9758 27.3024 19.648C27.1347 18.5435 27.2129 18.3649 28.3758 17.0707C29.3485 15.9773 29.7287 15.2967 29.5386 14.9508C29.3038 14.5045 28.8901 14.6942 28.4205 15.4417C28.1522 15.888 27.2688 16.5686 26.8216 16.6802C26.352 16.8029 26.3408 16.524 26.7992 15.6202C27.2353 14.7611 27.2353 14.4376 26.7992 14.326C26.3744 14.2256 25.7594 14.5826 25.4463 15.1293C25.1892 15.5645 25.1668 15.6983 25.2339 16.2897C25.3233 17.0707 25.2562 17.1823 24.5742 17.5505C24.2276 17.729 23.9145 17.7848 23.3107 17.7959C22.2597 17.7959 21.9802 17.5951 21.5888 16.5575C21.2087 15.5198 21.0857 15.319 20.5155 14.6942C19.9564 14.0917 19.9564 14.0024 20.4931 13.1545C20.9068 12.4962 20.9292 11.9718 20.5378 11.8714C20.18 11.7821 19.6992 11.983 19.3303 12.3623C18.9277 12.7751 18.8271 13.1322 18.883 13.7904C18.9389 14.326 18.9166 14.3929 18.5476 14.8058C18.0332 15.3636 17.9326 15.6314 17.8544 16.7025C17.8208 17.1823 17.6866 18.0079 17.5525 18.5435L17.3288 19.5142L17.5748 20.7191C17.7873 21.7233 17.8096 22.1473 17.7649 23.3188C17.6978 24.7581 17.6195 25.2155 17.4407 25.2155C17.2282 25.2155 15.4951 23.3523 15.1262 22.7386C13.2701 19.5699 13.5273 15.7541 15.7858 12.9313C17.027 11.3805 18.9613 10.2201 20.9403 9.8296C21.7454 9.6734 23.2325 9.69571 24.1493 9.88539ZM35.3528 11.5144L35.364 12.3288L36.1131 11.5144C36.8175 10.7557 36.8846 10.711 37.343 10.711H37.8238L37.2089 11.4474C36.8622 11.8491 36.5827 12.2284 36.5827 12.2954C36.5827 12.3735 36.8622 12.909 37.1977 13.5115C37.5331 14.1029 37.8126 14.6272 37.8126 14.6607C37.8126 14.6942 37.6337 14.7277 37.4213 14.7277C37.0411 14.7277 37.0188 14.6942 36.5715 13.8016C36.3144 13.2995 36.0907 12.8644 36.0684 12.8421C36.046 12.8086 35.8671 12.9313 35.6882 13.1098C35.3863 13.3888 35.3528 13.5004 35.3528 14.0805C35.3528 14.7277 35.3528 14.7277 35.0174 14.7277H34.6819V12.7193V10.711H35.0174H35.3528V11.5144ZM41.0216 12.552C41.3459 13.5338 41.6478 14.4264 41.6813 14.5268C41.726 14.6942 41.6701 14.7277 41.4018 14.7277C41.1334 14.7277 41.0216 14.6496 40.8874 14.3929C40.7197 14.0805 40.675 14.0582 40.0489 14.0582C39.4227 14.0582 39.378 14.0805 39.2103 14.3929C39.0761 14.6496 38.9643 14.7277 38.7071 14.7277C38.517 14.7277 38.3717 14.7165 38.3717 14.6942C38.3717 14.6607 39.5569 11.1015 39.6575 10.8449C39.6911 10.7557 39.8476 10.711 40.0712 10.7333C40.4178 10.7668 40.429 10.778 41.0216 12.552ZM44.2306 10.8672C44.7337 11.0792 44.7896 11.2131 44.4766 11.4139C44.2641 11.559 44.1411 11.5701 43.8057 11.4697C43.269 11.3024 42.8441 11.4809 42.8441 11.8714C42.8441 12.0945 42.9224 12.1726 43.269 12.2619C43.4926 12.3288 43.7498 12.3846 43.8281 12.3846C44.1188 12.3846 44.5884 12.7082 44.7226 12.9983C45.2592 14.1698 43.8504 15.1516 42.464 14.5715C41.9608 14.3595 41.8714 14.1921 42.1397 13.9355C42.341 13.7235 42.3745 13.7235 42.777 13.8909C43.4703 14.181 44.1859 13.902 44.0182 13.3999C43.9734 13.2437 43.8169 13.1545 43.5374 13.1098C42.4081 12.9202 42.0615 12.6412 42.0615 11.9272C42.0615 11.4809 42.3857 10.9788 42.777 10.8226C43.146 10.6776 43.8169 10.6999 44.2306 10.8672ZM47.775 11.0346C48.0433 11.3024 48.0993 11.4586 48.0993 11.8825C48.0993 12.3065 48.0433 12.4627 47.775 12.7305C47.4843 13.0206 47.3725 13.0541 46.7687 13.0541H46.0867V13.8909V14.7277H45.7512H45.4158V12.7193V10.711H46.4333C47.406 10.711 47.4619 10.7222 47.775 11.0346ZM49.7764 12.7193V14.7277H49.441H49.1056V12.7193V10.711H49.441H49.7764V12.7193ZM39.2997 17.1265C40.4737 17.4277 41.2229 18.1418 41.5024 19.1906C41.7596 20.1613 41.4018 21.3774 40.6974 21.9018C39.8811 22.5043 39.624 22.5824 38.0698 22.627L36.5827 22.6717V24.2225V25.7734H35.6323H34.6819V21.3663V16.9591H36.6722C38.0698 16.9591 38.8525 17.0038 39.2997 17.1265ZM46.1314 17.4166C46.232 17.662 46.9364 19.5142 47.6967 21.5113C48.4682 23.5196 49.1391 25.2936 49.2062 25.461L49.3292 25.7734H48.3341H47.3389L47.037 24.8808L46.7352 23.9771L45.1027 24.0106L43.4703 24.044L43.1907 24.9031L42.9112 25.7734H41.9161C41.167 25.7734 40.9322 25.7399 40.9769 25.6284C40.9992 25.5614 41.6925 23.7316 42.5087 21.5894C43.3137 19.4361 44.0517 17.517 44.13 17.3162L44.2865 16.9591H45.1139H45.9525L46.1314 17.4166ZM51.1741 18.934C51.6548 19.9939 52.0909 20.8196 52.1356 20.7749C52.1804 20.7303 52.6052 19.86 53.0748 18.8224L53.947 16.9591H54.9309C55.4788 16.9591 55.926 16.9926 55.926 17.0261C55.926 17.0595 55.2775 18.3426 54.4725 19.86L53.0189 22.627V24.2002V25.7734H52.0685H51.1181V24.1444V22.5155L49.7093 19.8266C48.9267 18.3426 48.267 17.0819 48.2446 17.0372C48.2111 16.9926 48.6583 16.9703 49.2397 16.9814L50.2796 17.0149L51.1741 18.934ZM23.5679 19.2017C24.2723 19.5365 24.4736 20.0051 24.7866 22.1138C24.932 23.118 25.0885 24.4122 25.1333 24.9924C25.2003 26.03 25.2003 26.0635 24.9208 26.309C24.6077 26.6102 24.1605 26.7329 22.9977 26.8334C22.215 26.9115 22.1814 26.9003 21.8348 26.599C21.3317 26.1416 21.2422 25.461 21.287 22.4485C21.3205 20.2617 21.354 19.86 21.5218 19.503C21.8572 18.8336 22.5616 18.722 23.5679 19.2017ZM19.7999 23.4527C19.8781 23.9659 19.9229 24.8027 19.9005 25.3271C19.867 26.2085 19.8446 26.2755 19.621 26.309C19.4533 26.3313 19.3191 26.242 19.1737 26.0412C19.006 25.7734 18.9725 25.4945 18.9836 24.2114C18.9836 23.2519 19.0396 22.5824 19.129 22.3704L19.2744 22.0357L19.4756 22.2812C19.5986 22.4374 19.7216 22.8948 19.7999 23.4527ZM26.8775 22.6159C27.3918 23.1738 27.9397 24.4792 27.8055 24.8697C27.7385 25.104 26.9558 25.6618 26.6874 25.6618C26.4526 25.6618 26.1843 24.6465 26.1619 23.6535C26.1396 22.3035 26.3296 22.0357 26.8775 22.6159Z" fill="black"/>
<path d="M39.4522 12.5879C39.3447 12.9465 39.249 13.2693 39.249 13.3051C39.249 13.3529 39.4642 13.3888 39.7272 13.3888C39.9902 13.3888 40.2054 13.3529 40.2054 13.3051C40.2054 13.1138 39.7989 11.9543 39.7272 11.9543C39.6913 11.9543 39.5598 12.2412 39.4522 12.5879Z" fill="black"/>
<path d="M45.9434 11.9543V12.4324H46.3976C46.8877 12.4324 47.3779 12.188 47.3779 11.9543C47.3779 11.7205 46.8877 11.4761 46.3976 11.4761H45.9434V11.9543Z" fill="black"/>
<path d="M36.3799 20.0832V21.5177H37.0751C38.6751 21.5062 39.2489 21.1505 39.2489 20.1865C39.2489 19.0389 38.7523 18.6487 37.3178 18.6487H36.3799V20.0832Z" fill="black"/>
<path d="M44.4818 20.767C44.2103 21.6756 44.0119 22.4308 44.0328 22.4544C44.0536 22.478 44.4923 22.478 45.004 22.4662L45.9439 22.4308L45.4531 20.7788L44.9622 19.1268L44.4818 20.767Z" fill="black"/>
</svg>
