<svg width="24" height="18" viewBox="0 0 24 18" fill="none" xmlns="http://www.w3.org/2000/svg">
<path d="M23.25 3H16.0226C15.774 1.90575 14.9216 0 12 0C9.07838 0 8.226 1.90575 7.97738 3H0.75C0.551088 3 0.360322 3.07902 0.21967 3.21967C0.0790176 3.36032 0 3.55109 0 3.75L0 17.25C0 17.4489 0.0790176 17.6397 0.21967 17.7803C0.360322 17.921 0.551088 18 0.75 18H23.25C23.4489 18 23.6397 17.921 23.7803 17.7803C23.921 17.6397 24 17.4489 24 17.25V3.75C24 3.55109 23.921 3.36032 23.7803 3.21967C23.6397 3.07902 23.4489 3 23.25 3ZM12 1.5C13.6256 1.5 14.2425 2.3415 14.478 3H9.5205C9.75675 2.34488 10.3759 1.5 12 1.5ZM22.5 4.5V7.5H1.5V4.5H22.5ZM10.875 9H13.125V9.75H10.875V9ZM1.5 16.5V9H9.375V10.5C9.375 10.6989 9.45402 10.8897 9.59467 11.0303C9.73532 11.171 9.92609 11.25 10.125 11.25H13.875C14.0739 11.25 14.2647 11.171 14.4053 11.0303C14.546 10.8897 14.625 10.6989 14.625 10.5V9H22.5V16.5H1.5Z" fill="#00ABC1"/>
</svg>
