<svg width="61" height="58" viewBox="0 0 61 58" fill="none" xmlns="http://www.w3.org/2000/svg">
<path fill-rule="evenodd" clip-rule="evenodd" d="M58.0752 9.79679L60.8191 7.35545L60.1331 6.67188L57.4219 9.04811L58.0752 9.79679Z" fill="#00ABC2"/>
<path fill-rule="evenodd" clip-rule="evenodd" d="M54.9065 13.8657L58.6304 10.4153L56.7684 8.33203C55.9518 9.17836 53.8939 11.1314 52.8159 11.8801L54.9065 13.8657Z" fill="#F6BF0C"/>
<path d="M44.5516 9.76551L47.9161 6.24998L47.1975 5.56641L43.8003 9.08193L44.5516 9.76551Z" stroke="#00ABC2" stroke-width="0.216" stroke-miterlimit="22.9256"/>
<path fill-rule="evenodd" clip-rule="evenodd" d="M41.5136 14.1939L45.1722 10.3528L43.1469 8.46484L39.5537 12.4686L41.5136 14.1939Z" fill="#F6BF0C"/>
<path fill-rule="evenodd" clip-rule="evenodd" d="M40.4682 2.92961L42.8201 0.781228L42.2321 0L39.7822 2.21348L40.4682 2.92961Z" fill="#F6BF0C"/>
<path fill-rule="evenodd" clip-rule="evenodd" d="M37.0715 7.19385L41.0566 3.54812L39.1294 1.5625L35.2422 5.24078L37.0715 7.19385Z" fill="#00ABC2"/>
<path fill-rule="evenodd" clip-rule="evenodd" d="M55.4947 14.3879L52.2282 11.3281C44.4211 17.9035 23.4826 42.4796 19.3994 52.2775L42.1346 26.8876C53.1755 36.718 52.1302 56.5417 29.4604 56.444C37.3981 59.3411 50.1703 57.0625 53.7635 48.5667C57.52 39.7127 53.0448 29.1011 47.263 22.2328L55.4947 14.3879Z" fill="#00ABC2"/>
<path fill-rule="evenodd" clip-rule="evenodd" d="M34.654 4.58984L30.3422 9.21211C22.0452 6.86843 12.5069 3.45055 4.92848 10.4816C-2.22525 17.122 -0.526649 25.2273 3.32787 34.9275C1.7926 28.1569 0.257323 22.2 6.20243 16.6989C11.7882 11.5232 20.1506 12.5649 25.475 14.5505C25.3444 14.9086 23.7438 17.1872 21.8492 19.8889C17.4393 26.0736 9.20765 39.5173 6.56175 46.0926C13.6175 36.6853 23.9398 19.8889 34.85 10.4816L37.7899 7.94262L34.654 4.58984Z" fill="#F6BF0C"/>
<path fill-rule="evenodd" clip-rule="evenodd" d="M38.8027 11.8164C30.963 19.8565 13.193 43.7491 11.0044 52.3426C18.2561 39.8104 32.0409 25.8785 42.2652 14.8437L38.8027 11.8164Z" fill="#00ABC2"/>
<path fill-rule="evenodd" clip-rule="evenodd" d="M44.5516 9.76551L47.9161 6.24998L47.1975 5.56641L43.8003 9.08193L44.5516 9.76551Z" fill="#00ABC2"/>
</svg>
