<svg width="47" height="47" viewBox="0 0 47 47" fill="none" xmlns="http://www.w3.org/2000/svg">
<g clip-path="url(#clip0_1906_33714)">
<mask id="mask0_1906_33714" style="mask-type:luminance" maskUnits="userSpaceOnUse" x="0" y="0" width="47" height="47">
<path d="M0 3.8147e-06H47V47H0V3.8147e-06Z" fill="white"/>
</mask>
<g mask="url(#mask0_1906_33714)">
<path d="M30.5588 6.41003C36.0773 12.9994 35.2091 22.815 28.6198 28.3335C22.0303 33.852 12.2149 32.9839 6.69638 26.3945C1.17775 19.805 2.04591 9.98958 8.63533 4.47108C15.2246 -1.04755 25.0403 -0.179389 30.5588 6.41003Z" stroke="#00ABC2" stroke-width="1.64062" stroke-miterlimit="10" stroke-linecap="round" stroke-linejoin="round"/>
<path d="M27.38 9.07217C31.4283 13.906 30.7914 21.1063 25.9575 25.1546C21.1238 29.2029 13.9233 28.566 9.87525 23.7321C5.82694 18.8984 6.4637 11.698 11.2976 7.64972C16.1313 3.60153 23.3317 4.2383 27.38 9.07217Z" stroke="#00ABC2" stroke-width="1.64062" stroke-miterlimit="10" stroke-linecap="round" stroke-linejoin="round"/>
<path d="M32.3317 23.7852L34.7441 26.6657C35.1224 27.1173 35.0629 27.7898 34.6112 28.1681L27.405 34.2032C26.9535 34.5815 26.2809 34.5219 25.9027 34.0703L23.4902 31.1898" stroke="#00ABC2" stroke-width="1.64062" stroke-miterlimit="10" stroke-linecap="round" stroke-linejoin="round"/>
<path d="M33.8132 28.8365L43.2216 40.0713C44.3569 41.4281 44.1786 43.448 42.8232 44.5833L42.1244 45.1688C40.7677 46.3041 38.7478 46.1259 37.6125 44.7691L28.2041 33.5343" stroke="#00ABC2" stroke-width="1.64062" stroke-miterlimit="10" stroke-linecap="round" stroke-linejoin="round"/>
<path d="M22.4795 11.2278H24.6916V21.5771" stroke="#00ABC2" stroke-width="1.64062" stroke-miterlimit="10" stroke-linecap="round" stroke-linejoin="round"/>
<path d="M18.549 18.7953C18.549 20.4481 17.2091 21.7881 15.5562 21.7881C13.9033 21.7881 12.5635 20.4481 12.5635 18.7953V14.0091C12.5635 12.3563 13.9033 11.0163 15.5562 11.0163C17.2091 11.0163 18.549 12.3563 18.549 14.0091V18.7953Z" stroke="#00ABC2" stroke-width="1.64062" stroke-miterlimit="10" stroke-linecap="round" stroke-linejoin="round"/>
</g>
</g>
<defs>
<clipPath id="clip0_1906_33714">
<rect width="47" height="47" fill="white"/>
</clipPath>
</defs>
</svg>
