<svg width="30" height="30" viewBox="0 0 30 30" fill="none" xmlns="http://www.w3.org/2000/svg">
<path d="M16.25 2.5H7.5C6.83696 2.5 6.20107 2.76339 5.73223 3.23223C5.26339 3.70107 5 4.33696 5 5V25C5 25.663 5.26339 26.2989 5.73223 26.7678C6.20107 27.2366 6.83696 27.5 7.5 27.5H22.5C23.163 27.5 23.7989 27.2366 24.2678 26.7678C24.7366 26.2989 25 25.663 25 25V11.25L16.25 2.5Z" fill="white" stroke="#00ABC2" stroke-width="2" stroke-linecap="round" stroke-linejoin="round"/>
<path d="M16.25 2.5V11.25H25" stroke="#00ABC2" stroke-width="2" stroke-linecap="round" stroke-linejoin="round"/>
<rect x="4" y="16" width="15" height="8" rx="1" fill="#00ABC2"/>
<path d="M7.525 22V18.5H8.89C9.19667 18.5 9.45833 18.5483 9.675 18.645C9.89167 18.7417 10.0583 18.8817 10.175 19.065C10.2917 19.2483 10.35 19.4667 10.35 19.72C10.35 19.9733 10.2917 20.1917 10.175 20.375C10.0583 20.555 9.89167 20.695 9.675 20.795C9.45833 20.8917 9.19667 20.94 8.89 20.94H7.8L8.025 20.705V22H7.525ZM8.025 20.755L7.8 20.505H8.875C9.195 20.505 9.43667 20.4367 9.6 20.3C9.76667 20.1633 9.85 19.97 9.85 19.72C9.85 19.47 9.76667 19.2767 9.6 19.14C9.43667 19.0033 9.195 18.935 8.875 18.935H7.8L8.025 18.685V20.755ZM11.0846 22V18.5H12.5596C12.9329 18.5 13.2612 18.5733 13.5446 18.72C13.8312 18.8667 14.0529 19.0717 14.2096 19.335C14.3696 19.5983 14.4496 19.9033 14.4496 20.25C14.4496 20.5967 14.3696 20.9017 14.2096 21.165C14.0529 21.4283 13.8312 21.6333 13.5446 21.78C13.2612 21.9267 12.9329 22 12.5596 22H11.0846ZM11.5846 21.565H12.5296C12.8196 21.565 13.0696 21.51 13.2796 21.4C13.4929 21.29 13.6579 21.1367 13.7746 20.94C13.8912 20.74 13.9496 20.51 13.9496 20.25C13.9496 19.9867 13.8912 19.7567 13.7746 19.56C13.6579 19.3633 13.4929 19.21 13.2796 19.1C13.0696 18.99 12.8196 18.935 12.5296 18.935H11.5846V21.565ZM15.6654 20.155H17.4704V20.585H15.6654V20.155ZM15.7154 22H15.2154V18.5H17.6854V18.935H15.7154V22Z" fill="white"/>
</svg>
