<svg width="47" height="47" viewBox="0 0 47 47" fill="none" xmlns="http://www.w3.org/2000/svg">
<circle cx="23.5" cy="23.5" r="22.68" stroke="#00ABC2" stroke-width="1.64"/>
<circle cx="23.5" cy="23.5" r="5.055" stroke="#00ABC2" stroke-width="1.64"/>
<circle cx="37.7681" cy="23.5" r="5.055" stroke="#00ABC2" stroke-width="1.64"/>
<circle cx="9.23193" cy="23.5" r="5.055" stroke="#00ABC2" stroke-width="1.64"/>
<circle cx="23.5" cy="10.0713" r="5.055" stroke="#00ABC2" stroke-width="1.64"/>
<path d="M28.555 36.9287C28.555 39.7205 26.2918 41.9837 23.5 41.9837C20.7082 41.9837 18.445 39.7205 18.445 36.9287C18.445 34.1369 20.7082 31.8737 23.5 31.8737C26.2918 31.8737 28.555 34.1369 28.555 36.9287Z" stroke="#00ABC2" stroke-width="1.64"/>
<path d="M18.4837 33.5713C18.4837 36.3631 16.2205 38.6263 13.4287 38.6263C10.6369 38.6263 8.37371 36.3631 8.37371 33.5713C8.37371 30.7795 10.6369 28.5163 13.4287 28.5163C16.2205 28.5163 18.4837 30.7795 18.4837 33.5713Z" stroke="#00ABC2" stroke-width="1.64"/>
<circle cx="33.5713" cy="33.5713" r="5.055" stroke="#00ABC2" stroke-width="1.64"/>
<path d="M38.6263 13.4287C38.6263 16.2205 36.3631 18.4837 33.5713 18.4837C30.7795 18.4837 28.5163 16.2205 28.5163 13.4287C28.5163 10.6369 30.7795 8.37371 33.5713 8.37371C36.3631 8.37371 38.6263 10.6369 38.6263 13.4287Z" stroke="#00ABC2" stroke-width="1.64"/>
<circle cx="13.4287" cy="13.4287" r="5.055" stroke="#00ABC2" stroke-width="1.64"/>
</svg>
