<?xml version="1.0" encoding="utf-8"?>
<!-- Generator: Adobe Illustrator 17.1.0, SVG Export Plug-In . SVG Version: 6.00 Build 0)  -->
<!DOCTYPE svg PUBLIC "-//W3C//DTD SVG 1.0//EN" "http://www.w3.org/TR/2001/REC-SVG-20010904/DTD/svg10.dtd">
<svg version="1.0" id="Layer_1" xmlns="http://www.w3.org/2000/svg" xmlns:xlink="http://www.w3.org/1999/xlink" x="0px" y="0px"
	 viewBox="0 0 841.9 282.7" style="enable-background:new 0 0 841.9 282.7;" xml:space="preserve">
<style type="text/css">
	.st0{fill:#1F1B20;}
	.st1{fill-rule:evenodd;clip-rule:evenodd;fill:#00ABC1;}
	.st2{fill-rule:evenodd;clip-rule:evenodd;fill:#F5BE0C;}
	.st3{fill:none;stroke:#00ABC1;stroke-width:0.216;stroke-miterlimit:22.9256;}
</style>
<path class="st0" d="M779.3,248.8v-21.4h2.8v21.4H779.3z M757.3,248.8v-21.4h2.8v8.8h11.1v-8.8h2.8v21.4h-2.8v-10.1h-11.1v10.1
	H757.3z M736.3,241.9l2.7-0.2c0.1,1.1,0.4,2,0.9,2.7c0.5,0.7,1.2,1.2,2.2,1.7c1,0.4,2.1,0.6,3.3,0.6c1.1,0,2-0.2,2.9-0.5
	c0.8-0.3,1.4-0.8,1.8-1.3c0.4-0.6,0.6-1.2,0.6-1.8c0-0.7-0.2-1.3-0.6-1.8c-0.4-0.5-1-0.9-1.9-1.3c-0.6-0.2-1.8-0.6-3.8-1
	c-2-0.5-3.3-0.9-4.1-1.3c-1-0.5-1.8-1.2-2.3-2c-0.5-0.8-0.8-1.7-0.8-2.7c0-1.1,0.3-2.1,0.9-3c0.6-0.9,1.5-1.7,2.7-2.1
	c1.2-0.5,2.5-0.7,3.9-0.7c1.6,0,3,0.3,4.2,0.8c1.2,0.5,2.1,1.3,2.8,2.3c0.7,1,1,2.1,1.1,3.4l-2.7,0.2c-0.1-1.4-0.6-2.4-1.5-3.1
	c-0.8-0.7-2.1-1-3.7-1c-1.7,0-3,0.3-3.8,0.9c-0.8,0.6-1.2,1.4-1.2,2.3c0,0.8,0.3,1.4,0.8,1.9c0.5,0.5,2,1,4.3,1.5
	c2.3,0.5,3.9,1,4.7,1.4c1.2,0.6,2.2,1.3,2.8,2.2c0.6,0.9,0.9,1.9,0.9,3c0,1.1-0.3,2.2-1,3.2c-0.7,1-1.6,1.8-2.8,2.3
	c-1.2,0.6-2.6,0.8-4.1,0.8c-1.9,0-3.6-0.3-4.9-0.8c-1.3-0.6-2.3-1.4-3.1-2.5C736.7,244.7,736.3,243.4,736.3,241.9z M729.4,248.8
	v-21.4h2.8v21.4H729.4z M715.7,240.4v-2.5h9.1v7.9c-1.4,1.1-2.8,1.9-4.3,2.5c-1.5,0.6-3,0.8-4.6,0.8c-2.1,0-4-0.4-5.7-1.4
	c-1.7-0.9-3-2.2-3.9-3.9c-0.9-1.7-1.3-3.6-1.3-5.7c0-2.1,0.4-4,1.3-5.8c0.9-1.8,2.1-3.1,3.8-4c1.6-0.9,3.5-1.3,5.7-1.3
	c1.5,0,2.9,0.2,4.2,0.8c1.3,0.5,2.2,1.2,2.9,2.1c0.7,0.9,1.3,2.1,1.6,3.5l-2.6,0.7c-0.3-1.1-0.7-1.9-1.2-2.6c-0.5-0.6-1.2-1.1-2-1.5
	c-0.9-0.4-1.9-0.6-2.9-0.6c-1.3,0-2.4,0.2-3.4,0.6c-0.9,0.4-1.7,0.9-2.3,1.6c-0.6,0.6-1,1.4-1.3,2.1c-0.5,1.3-0.8,2.8-0.8,4.3
	c0,1.9,0.3,3.5,1,4.8c0.7,1.3,1.6,2.2,2.9,2.9c1.3,0.6,2.6,0.9,4,0.9c1.2,0,2.4-0.2,3.6-0.7c1.2-0.5,2.1-1,2.7-1.5v-4H715.7z
	 M685.6,248.8v-2.6l11-13.7c0.8-1,1.5-1.8,2.2-2.6h-11.9v-2.5h15.3v2.5l-12,14.9l-1.3,1.5h13.7v2.5H685.6z M679.5,248.8v-21.4h2.8
	v21.4H679.5z M658.9,248.8v-21.4h2.8V238l10.6-10.6h3.8l-9,8.7l9.4,12.7h-3.7l-7.6-10.8l-3.5,3.4v7.4H658.9z M646.2,248.8v-18.9
	h-7.1v-2.5h17v2.5h-7.1v18.9H646.2z M624.7,226.1l1.9-4.1h3.5l-3.2,4.1H624.7z M619.6,238.4c0,2.6,0.7,4.6,2.1,6.1
	c1.4,1.5,3.1,2.2,5.2,2.2c2.1,0,3.9-0.7,5.3-2.2c1.4-1.5,2.1-3.6,2.1-6.4c0-1.7-0.3-3.3-0.9-4.6c-0.6-1.3-1.5-2.3-2.6-3
	c-1.1-0.7-2.4-1.1-3.8-1.1c-2,0-3.7,0.7-5.2,2.1C620.3,232.9,619.6,235.2,619.6,238.4z M616.6,238.4c0-3.6,1-6.3,2.9-8.3
	c1.9-2,4.4-3,7.4-3c2,0,3.8,0.5,5.4,1.4c1.6,0.9,2.8,2.3,3.6,4c0.8,1.7,1.3,3.6,1.3,5.7c0,2.2-0.4,4.1-1.3,5.8
	c-0.9,1.7-2.1,3-3.7,3.9c-1.6,0.9-3.3,1.3-5.2,1.3c-2,0-3.8-0.5-5.4-1.5c-1.6-1-2.8-2.3-3.6-4C617,242.1,616.6,240.3,616.6,238.4z
	 M601.3,248.8v-21.4h2.8v21.4H601.3z M582.1,246.3h4.6c1.4,0,2.5-0.1,3.3-0.4c0.8-0.3,1.4-0.6,1.9-1.1c0.7-0.7,1.2-1.6,1.6-2.7
	c0.4-1.1,0.6-2.5,0.6-4.1c0-2.2-0.4-4-1.1-5.2c-0.7-1.2-1.6-2-2.7-2.4c-0.8-0.3-2-0.4-3.7-0.4h-4.5V246.3z M579.2,248.8v-21.4h7.4
	c1.7,0,2.9,0.1,3.8,0.3c1.2,0.3,2.3,0.8,3.1,1.5c1.1,1,2,2.2,2.5,3.7c0.6,1.5,0.8,3.2,0.8,5.1c0,1.6-0.2,3.1-0.6,4.3
	c-0.4,1.3-0.9,2.3-1.5,3.1c-0.6,0.8-1.2,1.5-2,1.9c-0.7,0.5-1.6,0.8-2.6,1.1c-1,0.2-2.2,0.4-3.4,0.4H579.2z M554.2,248.8v-21.4h4.3
	l5.1,15.2c0.5,1.4,0.8,2.5,1,3.2c0.2-0.8,0.6-1.9,1.1-3.4l5.2-14.9h3.8v21.4H572v-17.9l-6.3,17.9h-2.6l-6.2-18.3v18.3H554.2z
	 M546.5,248.8v-21.4h2.8v21.4H546.5z M524.3,248.8v-21.4h2.9l11.2,16.8v-16.8h2.7v21.4h-2.9L527.1,232v16.8H524.3z M504.5,248.8
	v-21.4h15.5v2.5h-12.6v6.6h11.8v2.5h-11.8v7.3h13.1v2.5H504.5z M483.5,241.9l2.7-0.2c0.1,1.1,0.4,2,0.9,2.7c0.5,0.7,1.2,1.2,2.2,1.7
	c1,0.4,2.1,0.6,3.3,0.6c1.1,0,2-0.2,2.9-0.5c0.8-0.3,1.4-0.8,1.8-1.3c0.4-0.6,0.6-1.2,0.6-1.8c0-0.7-0.2-1.3-0.6-1.8
	c-0.4-0.5-1-0.9-1.9-1.3c-0.6-0.2-1.8-0.6-3.8-1c-2-0.5-3.3-0.9-4.1-1.3c-1-0.5-1.8-1.2-2.3-2c-0.5-0.8-0.8-1.7-0.8-2.7
	c0-1.1,0.3-2.1,0.9-3c0.6-0.9,1.5-1.7,2.7-2.1c1.2-0.5,2.5-0.7,3.9-0.7c1.6,0,3,0.3,4.2,0.8c1.2,0.5,2.1,1.3,2.8,2.3
	c0.7,1,1,2.1,1.1,3.4l-2.7,0.2c-0.1-1.4-0.6-2.4-1.5-3.1c-0.8-0.7-2.1-1-3.7-1c-1.7,0-3,0.3-3.8,0.9c-0.8,0.6-1.2,1.4-1.2,2.3
	c0,0.8,0.3,1.4,0.8,1.9c0.5,0.5,2,1,4.3,1.5c2.3,0.5,3.9,1,4.7,1.4c1.2,0.6,2.2,1.3,2.8,2.2c0.6,0.9,0.9,1.9,0.9,3
	c0,1.1-0.3,2.2-1,3.2c-0.7,1-1.6,1.8-2.8,2.3c-1.2,0.6-2.6,0.8-4.1,0.8c-1.9,0-3.6-0.3-4.9-0.8c-1.3-0.6-2.3-1.4-3.1-2.5
	C483.9,244.7,483.5,243.4,483.5,241.9z M461.1,226.1l1.9-4.1h3.5l-3.2,4.1H461.1z M454.5,248.8v-21.4h2.9l11.2,16.8v-16.8h2.7v21.4
	h-2.9L457.2,232v16.8H454.5z M440.6,248.8v-9.1l-8.3-12.4h3.4l4.2,6.5c0.8,1.2,1.5,2.4,2.2,3.6c0.7-1.1,1.4-2.4,2.4-3.8l4.2-6.3h3.3
	l-8.6,12.4v9.1H440.6z M421.7,248.8v-18.9h-7.1v-2.5h17v2.5h-7.1v18.9H421.7z M403,242.9c1.6,0.5,3,1.1,4,2c1.7-1.5,2.5-3.8,2.5-6.8
	c0-1.7-0.3-3.2-0.9-4.5c-0.6-1.3-1.4-2.3-2.6-3c-1.1-0.7-2.4-1.1-3.8-1.1c-2.1,0-3.9,0.7-5.2,2.2c-1.4,1.4-2.1,3.6-2.1,6.5
	c0,2.8,0.7,4.9,2.1,6.4c1.4,1.5,3.1,2.2,5.3,2.2c1,0,2-0.2,2.9-0.6c-0.9-0.6-1.8-1-2.8-1.2L403,242.9z M409.2,246.5
	c1.3,0.9,2.5,1.6,3.7,2l-0.8,2c-1.5-0.6-3.1-1.4-4.6-2.6c-1.6,0.9-3.3,1.3-5.3,1.3c-1.9,0-3.7-0.5-5.3-1.4c-1.6-0.9-2.8-2.3-3.6-3.9
	c-0.9-1.7-1.3-3.6-1.3-5.7c0-2.1,0.4-4,1.3-5.8c0.9-1.7,2.1-3,3.7-4c1.6-0.9,3.4-1.4,5.3-1.4c2,0,3.8,0.5,5.3,1.4
	c1.6,0.9,2.8,2.3,3.6,3.9c0.8,1.7,1.2,3.6,1.2,5.7c0,1.8-0.3,3.3-0.8,4.8C411.1,244.3,410.3,245.5,409.2,246.5z M371.7,238.4
	c0,2.6,0.7,4.6,2.1,6.1c1.4,1.5,3.1,2.2,5.2,2.2c2.1,0,3.9-0.7,5.3-2.2c1.4-1.5,2.1-3.6,2.1-6.4c0-1.7-0.3-3.3-0.9-4.6
	c-0.6-1.3-1.5-2.3-2.6-3c-1.1-0.7-2.4-1.1-3.8-1.1c-2,0-3.7,0.7-5.2,2.1C372.5,232.9,371.7,235.2,371.7,238.4z M368.8,238.4
	c0-3.6,1-6.3,2.9-8.3c1.9-2,4.4-3,7.4-3c2,0,3.8,0.5,5.4,1.4c1.6,0.9,2.8,2.3,3.6,4c0.8,1.7,1.3,3.6,1.3,5.7c0,2.2-0.4,4.1-1.3,5.8
	c-0.9,1.7-2.1,3-3.7,3.9c-1.6,0.9-3.3,1.3-5.2,1.3c-2,0-3.8-0.5-5.4-1.5c-1.6-1-2.8-2.3-3.6-4C369.2,242.1,368.8,240.3,368.8,238.4z
	 M357.4,248.8v-18.9h-7.1v-2.5h17v2.5h-7.1v18.9H357.4z M330.7,238.4c0,2.6,0.7,4.6,2.1,6.1c1.4,1.5,3.1,2.2,5.2,2.2
	c2.1,0,3.9-0.7,5.3-2.2c1.4-1.5,2.1-3.6,2.1-6.4c0-1.7-0.3-3.3-0.9-4.6c-0.6-1.3-1.5-2.3-2.6-3c-1.1-0.7-2.4-1.1-3.8-1.1
	c-2,0-3.7,0.7-5.2,2.1C331.4,232.9,330.7,235.2,330.7,238.4z M327.8,238.4c0-3.6,1-6.3,2.9-8.3c1.9-2,4.4-3,7.4-3
	c2,0,3.8,0.5,5.4,1.4c1.6,0.9,2.8,2.3,3.6,4c0.8,1.7,1.3,3.6,1.3,5.7c0,2.2-0.4,4.1-1.3,5.8c-0.9,1.7-2.1,3-3.7,3.9
	c-1.6,0.9-3.3,1.3-5.2,1.3c-2,0-3.8-0.5-5.4-1.5c-1.6-1-2.8-2.3-3.6-4C328.2,242.1,327.8,240.3,327.8,238.4z M309.9,236.8h6.1
	c1.3,0,2.3-0.1,3-0.4c0.7-0.3,1.3-0.7,1.7-1.3c0.4-0.6,0.6-1.2,0.6-1.9c0-1-0.4-1.9-1.1-2.5c-0.7-0.7-1.9-1-3.5-1h-6.8V236.8z
	 M307.1,248.8v-21.4h9.5c1.9,0,3.4,0.2,4.4,0.6c1,0.4,1.8,1.1,2.4,2c0.6,1,0.9,2.1,0.9,3.2c0,1.5-0.5,2.8-1.5,3.8
	c-1,1-2.5,1.7-4.6,2c0.8,0.4,1.3,0.7,1.7,1.1c0.8,0.8,1.6,1.7,2.3,2.9l3.7,5.8h-3.5l-2.8-4.5c-0.8-1.3-1.5-2.3-2-3
	c-0.5-0.7-1-1.2-1.4-1.4c-0.4-0.3-0.9-0.5-1.3-0.6c-0.3-0.1-0.8-0.1-1.6-0.1h-3.3v9.5H307.1z M294.2,248.8v-18.9h-7.1v-2.5h17v2.5
	H297v18.9H294.2z M268.6,248.8v-21.4h2.8V238l10.6-10.6h3.8l-9,8.7l9.4,12.7h-3.7L275,238l-3.5,3.4v7.4H268.6z M248.9,248.8v-21.4
	h15.5v2.5h-12.6v6.6h11.8v2.5h-11.8v7.3h13.1v2.5H248.9z M232,248.8v-21.4h2.8v18.9h10.5v2.5H232z M212.2,248.8v-21.4h15.5v2.5
	h-12.6v6.6h11.8v2.5h-11.8v7.3h13.1v2.5H212.2z M190.5,248.8v-9.1l-8.3-12.4h3.4l4.2,6.5c0.8,1.2,1.5,2.4,2.2,3.6
	c0.7-1.1,1.4-2.4,2.4-3.8l4.2-6.3h3.3l-8.6,12.4v9.1H190.5z M171.6,248.8v-18.9h-7.1v-2.5h17v2.5h-7.1v18.9H171.6z M152.9,242.9
	c1.6,0.5,3,1.1,4,2c1.7-1.5,2.5-3.8,2.5-6.8c0-1.7-0.3-3.2-0.9-4.5c-0.6-1.3-1.4-2.3-2.6-3c-1.1-0.7-2.4-1.1-3.8-1.1
	c-2.1,0-3.9,0.7-5.2,2.2c-1.4,1.4-2.1,3.6-2.1,6.5c0,2.8,0.7,4.9,2.1,6.4c1.4,1.5,3.1,2.2,5.3,2.2c1,0,2-0.2,2.9-0.6
	c-0.9-0.6-1.8-1-2.8-1.2L152.9,242.9z M159.1,246.5c1.3,0.9,2.5,1.6,3.7,2l-0.8,2c-1.5-0.6-3.1-1.4-4.6-2.6
	c-1.6,0.9-3.3,1.3-5.3,1.3c-1.9,0-3.7-0.5-5.3-1.4c-1.6-0.9-2.8-2.3-3.6-3.9c-0.9-1.7-1.3-3.6-1.3-5.7c0-2.1,0.4-4,1.3-5.8
	c0.9-1.7,2.1-3,3.7-4c1.6-0.9,3.4-1.4,5.3-1.4c2,0,3.8,0.5,5.3,1.4c1.6,0.9,2.8,2.3,3.6,3.9c0.8,1.7,1.2,3.6,1.2,5.7
	c0,1.8-0.3,3.3-0.8,4.8C161,244.3,160.2,245.5,159.1,246.5z M126.7,240h7.3l-2.2-5.9c-0.7-1.8-1.2-3.3-1.5-4.5
	c-0.3,1.4-0.7,2.8-1.2,4.1L126.7,240z M120.6,248.8l8.2-21.4h3.1l8.7,21.4h-3.2l-2.5-6.5h-9l-2.3,6.5H120.6z M104.2,236.8h6.1
	c1.3,0,2.3-0.1,3-0.4c0.7-0.3,1.3-0.7,1.7-1.3c0.4-0.6,0.6-1.2,0.6-1.9c0-1-0.4-1.9-1.1-2.5c-0.7-0.7-1.9-1-3.5-1h-6.8V236.8z
	 M101.3,248.8v-21.4h9.5c1.9,0,3.4,0.2,4.4,0.6c1,0.4,1.8,1.1,2.4,2c0.6,1,0.9,2.1,0.9,3.2c0,1.5-0.5,2.8-1.5,3.8
	c-1,1-2.5,1.7-4.6,2c0.8,0.4,1.3,0.7,1.7,1.1c0.8,0.8,1.6,1.7,2.3,2.9l3.7,5.8h-3.5l-2.8-4.5c-0.8-1.3-1.5-2.3-2-3
	c-0.5-0.7-1-1.2-1.4-1.4c-0.4-0.3-0.9-0.5-1.3-0.6c-0.3-0.1-0.8-0.1-1.6-0.1h-3.3v9.5H101.3z M93.7,227.4h2.8v12.4
	c0,2.2-0.2,3.9-0.7,5.1c-0.5,1.3-1.4,2.3-2.6,3.1c-1.3,0.8-2.9,1.2-5,1.2c-2,0-3.6-0.3-4.9-1c-1.3-0.7-2.2-1.7-2.7-3
	c-0.5-1.3-0.8-3.1-0.8-5.4v-12.4h2.8v12.4c0,1.9,0.2,3.2,0.5,4.1c0.3,0.9,0.9,1.6,1.8,2c0.8,0.5,1.9,0.7,3.1,0.7
	c2.1,0,3.6-0.5,4.4-1.4c0.9-0.9,1.3-2.8,1.3-5.5V227.4z M66.8,248.8v-18.9h-7.1v-2.5h17v2.5h-7.1v18.9H66.8z"/>
<polygon class="st1" points="238.9,62.9 247.3,55.4 245.3,53.2 236.8,60.6 "/>
<path class="st2" d="M229.1,75.5l11.5-10.6l-5.7-6.5c-2.6,2.6-8.8,8.6-12.2,11L229.1,75.5z"/>
<polygon class="st1" points="197.2,62.8 207.5,52 205.3,49.9 194.9,60.7 "/>
<polygon class="st3" points="197.2,62.8 207.5,52 205.3,49.9 194.9,60.7 "/>
<polygon class="st2" points="187.8,76.6 199.1,64.6 192.9,58.8 181.7,71.2 "/>
<polygon class="st2" points="184.6,41.7 191.8,35 190,32.6 182.5,39.5 "/>
<polygon class="st1" points="174.1,54.8 186.4,43.5 180.5,37.4 168.5,48.8 "/>
<path class="st1" d="M230.9,77.2l-10-9.4c-24,20.3-88.6,96.4-101.2,126.7l70.1-78.5c34,30.4,30.9,91.8-39.1,91.5
	c24.4,9,63.8,1.9,74.9-24.4c11.6-27.4-2.2-60.3-20-81.5L230.9,77.2z"/>
<path class="st2" d="M166.6,46.8l-13.3,14.3c-25.6-7.3-55-17.8-78.4,3.9c-22.1,20.5-16.8,45.6-4.9,75.6c-4.8-20.9-9.5-39.4,8.9-56.5
	c17.3-16,43-12.8,59.5-6.6c-0.4,1.2-5.3,8.2-11.2,16.5c-13.6,19.1-39,60.7-47.1,81.1c21.8-29.1,53.6-81,87.2-110.1l9.1-7.8
	L166.6,46.8z"/>
<path class="st1" d="M179.5,69.2c-24.1,24.8-79,98.8-85.7,125.4c22.4-38.7,64.9-81.8,96.4-116L179.5,69.2z"/>
<path class="st0" d="M322.4,124L322.4,124l-5.5-9.9h-32l-5.4,9.9h-12.7L295,74.3h12.1l28.4,49.7H322.4z M289.4,105.6L289.4,105.6
	h23.1L301,85h-0.1L289.4,105.6z M341.9,124L341.9,124V74.3h11.5v40.3h37.2v9.3H341.9z M453.9,124L453.9,124V98.8c0-0.7,0-1.5,0-2.5
	c0-1,0.1-2,0.1-3c0-1,0.1-2.1,0.1-3.1c0-1,0.1-1.9,0.1-2.6h-0.1c-0.2,0.4-0.5,0.9-0.9,1.5c-0.4,0.6-0.9,1.3-1.4,2.1
	c-0.5,0.7-1,1.5-1.5,2.2c-0.5,0.7-0.9,1.3-1.2,1.8l-16.5,23h-2.2l-16.5-22.9c-0.4-0.5-0.8-1.1-1.3-1.9c-0.5-0.8-1-1.5-1.5-2.3
	c-0.5-0.8-1-1.5-1.4-2.1c-0.4-0.6-0.7-1.1-0.8-1.4H409c0,0.6,0.1,1.4,0.1,2.4c0,1,0.1,2,0.1,3.1c0,1.1,0.1,2.1,0.1,3.1
	c0,1,0,1.8,0,2.5V124h-11.5V74.3h13l14.5,20.8c1.2,1.8,2.4,3.4,3.5,5.1c1.1,1.6,2,3.1,2.9,4.3c1-1.4,1.9-2.9,3-4.5
	c1-1.6,2.2-3.3,3.5-5.1l14.4-20.7h12.8V124H453.9z M527.4,124L527.4,124l-5.5-9.9h-32l-5.4,9.9h-12.7l28.2-49.7h12.1l28.4,49.7
	H527.4z M494.4,105.6L494.4,105.6h23.1L506,85h-0.1L494.4,105.6z M558,124L558,124V83.2h-22.7v-8.9h57.1v8.9h-22.8V124H558z
	 M622.9,124L622.9,124v-22.3l-26.9-27.4h15.5l9.4,10c1.5,1.5,2.9,3,4.3,4.5c1.4,1.5,2.6,2.8,3.7,4c0.6-0.5,1.2-1.1,1.9-1.9
	c0.7-0.7,1.4-1.5,2.1-2.2c0.7-0.8,1.4-1.5,2.1-2.2c0.7-0.7,1.3-1.4,1.9-2l9.8-10.3h15.1l-27.2,27.4V124H622.9z M314,200.9L314,200.9
	l-30.1-21.8v21.8h-11.5v-49.7h11.5v20.5l27.2-20.5h16.6l-32.2,23.9l36.1,25.8H314z M388.9,200.9L388.9,200.9l-5.5-9.9h-32l-5.4,9.9
	h-12.7l28.2-49.7h12.1l28.4,49.7H388.9z M355.9,182.5L355.9,182.5H379l-11.5-20.6h-0.1L355.9,182.5z M405.5,200.9L405.5,200.9v-5.5
	l34.3-35.3h-30.9v-8.9h49.9v5.1l-35,35.3h36.4v9.3H405.5z M511.5,200.9L511.5,200.9l-30.1-21.8v21.8h-11.5v-49.7h11.5v20.5
	l27.2-20.5h16.6l-32.2,23.9l36.1,25.8H511.5z M586.5,200.9L586.5,200.9L581,191h-32l-5.4,9.9h-12.7l28.2-49.7h12.1l28.4,49.7H586.5z
	 M553.5,182.5L553.5,182.5h23.1L565,161.9h-0.1L553.5,182.5z M606,200.9L606,200.9v-49.7h41.8c2.2,0,4.1,0.1,5.6,0.4
	c1.5,0.3,2.7,0.8,3.6,1.5c0.9,0.7,1.5,1.7,1.9,3c0.4,1.2,0.5,2.8,0.5,4.7v5.8c0,1.6-0.2,2.9-0.6,3.9c-0.4,1-0.9,1.8-1.4,2.5
	c-0.6,0.6-1.2,1.1-1.8,1.4c-0.6,0.3-1.2,0.5-1.7,0.6c0.5,0.1,1,0.3,1.7,0.6c0.7,0.3,1.3,0.8,1.9,1.4c0.6,0.7,1.1,1.6,1.5,2.8
	c0.4,1.2,0.6,2.7,0.6,4.6v6.1c0,2.2-0.2,4-0.7,5.3c-0.5,1.4-1.2,2.4-2.2,3.2c-1,0.8-2.3,1.3-3.8,1.5c-1.6,0.3-3.5,0.4-5.8,0.4H606z
	 M648.1,180.7L648.1,180.7c0-0.7-0.1-1.1-0.4-1.2c-0.2-0.1-0.7-0.2-1.4-0.2h-28.9v12.5h28.9c0.7,0,1.1-0.1,1.4-0.2
	c0.2-0.2,0.4-0.6,0.4-1.2V180.7z M648.1,161.1L648.1,161.1c0-0.7-0.1-1.1-0.4-1.2c-0.2-0.1-0.7-0.2-1.4-0.2h-28.9v11.1h28.9
	c0.7,0,1.1-0.1,1.4-0.2c0.2-0.2,0.4-0.6,0.4-1.2V161.1z M670.9,200.9L670.9,200.9v-49.7h51.8v8.9h-40.2v10.6h27v8.8h-27v12h40.7v9.3
	H670.9z M733.4,200.9v-49.7h11.5v40.3h37.2v9.3H733.4z"/>
</svg>
